<svg width="18" height="18" viewBox="0 0 18 18" fill="none" xmlns="http://www.w3.org/2000/svg">
<path d="M2.45471 0.000230164C2.24537 0.000230164 2.03579 0.0799752 1.87625 0.239926L0.239926 1.87625C-0.0799752 2.19615 -0.0799752 2.7141 0.239926 3.03318L6.20675 9L0.239926 14.9668C-0.0799752 15.2867 -0.0799752 15.8047 0.239926 16.1238L1.87625 17.7601C2.19615 18.08 2.7141 18.08 3.03318 17.7601L9 11.7933L14.9668 17.7601C15.2859 18.08 15.8047 18.08 16.1238 17.7601L17.7601 16.1238C18.08 15.8039 18.08 15.2859 17.7601 14.9668L11.7933 9L17.7601 3.03318C18.08 2.7141 18.08 2.19533 17.7601 1.87625L16.1238 0.239926C15.8039 -0.0799752 15.2859 -0.0799752 14.9668 0.239926L9 6.20675L3.03318 0.239926C2.87323 0.0799752 2.66406 0.000230164 2.45471 0.000230164Z" fill="white"/>
</svg>
