<svg width="153" height="15" viewBox="0 0 153 15" fill="none" xmlns="http://www.w3.org/2000/svg">
<path d="M0.63 5.414C0.63 4.13533 1.078 3.048 1.974 2.152C2.87 1.256 3.95267 0.807999 5.222 0.807999C6.49133 0.807999 7.56467 1.256 8.442 2.152C9.31933 3.03867 9.758 4.11667 9.758 5.386C9.758 6.646 9.30533 7.724 8.4 8.62C7.504 9.516 6.426 9.964 5.166 9.964C3.906 9.964 2.83267 9.52533 1.946 8.648C1.06867 7.77067 0.63 6.69267 0.63 5.414ZM8.834 5.4C8.834 4.27067 8.498 3.37467 7.826 2.712C7.16333 2.04 6.28133 1.704 5.18 1.704C4.088 1.704 3.206 2.04 2.534 2.712C1.87133 3.37467 1.54 4.26133 1.54 5.372C1.54 6.48267 1.876 7.37867 2.548 8.06C3.22 8.74133 4.116 9.082 5.236 9.082C6.36533 9.082 7.24733 8.75067 7.882 8.088C8.51667 7.416 8.834 6.52 8.834 5.4ZM5.334 3.328C4.73667 3.328 4.312 3.50533 4.06 3.86C3.808 4.21467 3.682 4.70467 3.682 5.33C3.682 5.946 3.83133 6.45 4.13 6.842C4.438 7.234 4.86733 7.43 5.418 7.43C6.15533 7.43 6.67333 7.05667 6.972 6.31L7.462 6.422C7.462 6.478 7.40133 6.69733 7.28 7.08C7.15867 7.45333 7.07933 7.63533 7.042 7.626C6.538 7.906 5.90333 8.046 5.138 8.046C4.382 8.046 3.738 7.81267 3.206 7.346C2.68333 6.87933 2.422 6.24 2.422 5.428C2.422 4.60667 2.69733 3.95333 3.248 3.468C3.79867 2.97333 4.50333 2.726 5.362 2.726C5.754 2.726 6.12267 2.768 6.468 2.852C6.82267 2.936 7.07 2.98733 7.21 3.006C7.266 3.10867 7.294 3.314 7.294 3.622C7.294 3.92067 7.28 4.21 7.252 4.49L6.734 4.448C6.69667 4.15867 6.62667 3.93933 6.524 3.79C6.328 3.482 5.93133 3.328 5.334 3.328ZM17.5903 1.004C18.6917 1.004 19.5877 1.23267 20.2783 1.69C20.9783 2.14733 21.3283 2.83333 21.3283 3.748C21.3283 4.24267 21.2257 4.68133 21.0203 5.064C20.815 5.43733 20.535 5.73133 20.1803 5.946C19.4897 6.37533 18.6777 6.59 17.7443 6.59C17.483 6.59 17.245 6.56667 17.0303 6.52C16.9277 6.436 16.8763 6.30533 16.8763 6.128C16.8763 5.95067 16.9137 5.82 16.9883 5.736C17.1377 5.764 17.3337 5.778 17.5763 5.778C18.1363 5.778 18.589 5.596 18.9343 5.232C19.2797 4.85867 19.4523 4.34067 19.4523 3.678C19.4523 2.502 18.7663 1.914 17.3943 1.914C16.881 1.914 16.6243 1.94667 16.6243 2.012V9.782C16.6243 9.95933 16.7083 10.09 16.8763 10.174C17.0537 10.2487 17.4223 10.286 17.9823 10.286L18.1643 11.042C17.0443 11.014 16.209 11 15.6583 11C15.1077 11 14.473 11.014 13.7543 11.042L13.5863 10.286C14.0343 10.2767 14.3283 10.23 14.4683 10.146C14.6177 10.062 14.6923 9.94067 14.6923 9.782V2.278C14.6923 2.11 14.627 1.984 14.4963 1.9C14.375 1.816 14.1277 1.774 13.7543 1.774L13.5723 1.018C14.8043 1.046 15.4577 1.06 15.5323 1.06C16.7177 1.02267 17.4037 1.004 17.5903 1.004ZM24.6832 0.681999V9.936C24.6832 10.0853 24.7345 10.1973 24.8372 10.272C24.9492 10.3373 25.1732 10.37 25.5092 10.37L25.6632 11.042C24.6832 11.014 24.0019 11 23.6192 11C23.2365 11 22.7325 11.014 22.1072 11.042L21.9672 10.37C22.3499 10.3607 22.6065 10.3233 22.7372 10.258C22.8772 10.1833 22.9472 10.076 22.9472 9.936V2.334C22.9472 1.98867 22.8912 1.76933 22.7792 1.676C22.6672 1.58267 22.5365 1.536 22.3872 1.536C22.2472 1.536 22.1305 1.54067 22.0372 1.55L21.8552 1.018C22.8445 0.766 23.6472 0.518666 24.2632 0.276C24.4405 0.276 24.5525 0.313333 24.5992 0.388C24.6552 0.453333 24.6832 0.551333 24.6832 0.681999ZM29.6139 8.438C29.0259 8.55933 28.6246 8.704 28.4099 8.872C28.1953 9.03067 28.0879 9.222 28.0879 9.446C28.0879 9.66067 28.1626 9.83333 28.3119 9.964C28.4706 10.0947 28.6759 10.16 28.9279 10.16C29.1799 10.16 29.4179 10.0573 29.6419 9.852L29.6139 8.438ZM32.2319 10.034L32.3439 10.608C32.1853 10.6733 31.8539 10.7853 31.3499 10.944C30.8553 11.0933 30.5473 11.168 30.4259 11.168C30.3046 11.168 30.2159 11.154 30.1599 11.126C30.1039 11.098 30.0526 11.0467 30.0059 10.972C29.9593 10.8973 29.9266 10.8413 29.9079 10.804C29.8893 10.7573 29.8613 10.678 29.8239 10.566C29.7866 10.4447 29.7633 10.37 29.7539 10.342C29.2499 10.8927 28.6759 11.168 28.0319 11.168C27.6119 11.168 27.2573 11.0373 26.9679 10.776C26.6786 10.5053 26.5339 10.174 26.5339 9.782C26.5339 9.25 26.7439 8.858 27.1639 8.606C27.5933 8.34467 28.3959 8.088 29.5719 7.836V7.332C29.5719 6.79067 29.5113 6.38933 29.3899 6.128C29.2686 5.85733 29.0539 5.722 28.7459 5.722C28.4473 5.722 28.2139 5.76867 28.0459 5.862V6.758C28.0459 6.814 27.8966 6.87 27.5979 6.926C27.2993 6.982 27.0799 7.01 26.9399 7.01C26.7999 7.01 26.7299 6.842 26.7299 6.506C26.7299 6.34733 26.7579 6.17933 26.8139 6.002C26.8699 5.82467 26.9306 5.69867 26.9959 5.624C27.1639 5.43733 27.5233 5.24133 28.0739 5.036C28.6339 4.83067 29.0586 4.728 29.3479 4.728C29.9546 4.728 30.4259 4.91467 30.7619 5.288C31.1073 5.66133 31.2799 6.212 31.2799 6.94V9.782C31.2799 9.95933 31.3546 10.048 31.5039 10.048L31.8819 10.034H32.2319ZM35.1164 10.3C35.863 10.3 36.2364 10.0573 36.2364 9.572C36.2364 9.25467 35.8537 8.95133 35.0884 8.662C34.771 8.54067 34.4537 8.40067 34.1364 8.242C33.8284 8.08333 33.5624 7.85933 33.3384 7.57C33.1144 7.28067 33.0024 6.94 33.0024 6.548C33.0024 5.988 33.231 5.54467 33.6884 5.218C34.155 4.89133 34.687 4.728 35.2844 4.728C35.8817 4.728 36.5304 4.85867 37.2304 5.12C37.3517 5.232 37.4124 5.46533 37.4124 5.82C37.4124 6.16533 37.375 6.506 37.3004 6.842L36.6844 6.786C36.6284 6.422 36.4837 6.128 36.2504 5.904C36.017 5.68 35.737 5.568 35.4104 5.568C35.093 5.568 34.8504 5.638 34.6824 5.778C34.5237 5.90867 34.4444 6.06267 34.4444 6.24C34.4444 6.41733 34.5564 6.576 34.7804 6.716C35.0044 6.856 35.275 6.98667 35.5924 7.108C35.919 7.22933 36.241 7.36933 36.5584 7.528C36.885 7.68667 37.1604 7.91067 37.3844 8.2C37.6084 8.48933 37.7204 8.83 37.7204 9.222C37.7204 9.81933 37.4917 10.2907 37.0344 10.636C36.577 10.9813 35.9937 11.154 35.2844 11.154C34.5844 11.154 33.8984 11.0467 33.2264 10.832C33.1704 10.7853 33.1144 10.5333 33.0584 10.076C33.0024 9.60933 32.9744 9.25 32.9744 8.998V8.788L33.7864 8.83C33.8517 9.34333 34.0057 9.71667 34.2484 9.95C34.491 10.1833 34.7804 10.3 35.1164 10.3ZM40.9849 8.97C40.9849 9.34333 41.0549 9.63733 41.1949 9.852C41.3442 10.0667 41.5356 10.174 41.7689 10.174C42.0022 10.174 42.2776 10.0527 42.5949 9.81C42.6696 9.754 42.7256 9.74933 42.7629 9.796L43.0429 10.174C42.8002 10.4073 42.6089 10.58 42.4689 10.692C42.0676 11 41.5916 11.154 41.0409 11.154C40.4902 11.154 40.0469 10.972 39.7109 10.608C39.3842 10.2347 39.2209 9.81933 39.2209 9.362V5.862H38.5209L38.4509 5.344C38.9642 5.176 39.3516 4.952 39.6129 4.672C39.8836 4.38267 40.1356 4.00467 40.3689 3.538H40.7049C40.7982 3.538 40.8589 3.55667 40.8869 3.594C40.9149 3.63133 40.9289 3.69667 40.9289 3.79L40.9849 4.98H42.7629C42.7816 5.064 42.7909 5.18067 42.7909 5.33C42.7909 5.47933 42.7302 5.65667 42.6089 5.862H40.9989L40.9849 8.97ZM47.5278 4.938L48.7738 4.98C49.1471 4.98 49.5578 4.952 50.0058 4.896V9.418C50.0058 9.74467 50.0338 9.93133 50.0898 9.978C50.1551 10.0247 50.2391 10.048 50.3418 10.048H50.5518L50.8458 10.034L50.9718 10.762C50.3091 10.7993 49.5718 10.9347 48.7598 11.168C48.5825 11.168 48.4938 11.1167 48.4938 11.014L48.4098 10.384C47.6258 10.9067 46.9865 11.168 46.4918 11.168C45.0265 11.168 44.2938 10.4447 44.2938 8.998L44.3078 6.044C44.3078 5.96 44.2985 5.89467 44.2798 5.848C44.2705 5.792 44.2191 5.74067 44.1258 5.694C44.0325 5.638 43.8971 5.61 43.7198 5.61L43.5658 4.938L44.8118 4.98C45.1851 4.98 45.5958 4.952 46.0438 4.896V8.55C46.0438 9.45533 46.4078 9.908 47.1358 9.908C47.5838 9.908 47.9618 9.77733 48.2698 9.516V6.044C48.2698 5.96 48.2605 5.89467 48.2418 5.848C48.2325 5.792 48.1811 5.74067 48.0878 5.694C47.9945 5.638 47.8591 5.61 47.6818 5.61L47.5278 4.938ZM54.0995 4.98C54.1088 5.04533 54.1135 5.10133 54.1135 5.148C54.1135 5.19467 54.1182 5.26467 54.1275 5.358C54.1368 5.45133 54.1415 5.52133 54.1415 5.568C54.8508 5.19467 55.3688 4.96133 55.6955 4.868C56.0222 4.77467 56.3022 4.728 56.5355 4.728C57.0768 4.728 57.5155 4.924 57.8515 5.316C58.1875 5.708 58.3555 6.27733 58.3555 7.024V9.936C58.3555 10.02 58.3602 10.09 58.3695 10.146C58.3882 10.1927 58.4442 10.244 58.5375 10.3C58.6308 10.3467 58.7662 10.37 58.9435 10.37L59.0975 11.042C58.1175 11.014 57.5015 11 57.2495 11C56.9975 11 56.5588 11.014 55.9335 11.042L55.7935 10.37C56.1108 10.3607 56.3255 10.3233 56.4375 10.258C56.5495 10.1833 56.6102 10.076 56.6195 9.936V7.444C56.6195 6.94933 56.5355 6.58533 56.3675 6.352C56.2088 6.10933 55.9335 5.988 55.5415 5.988C55.1588 5.988 54.7155 6.09533 54.2115 6.31V9.936C54.2115 10.02 54.2162 10.09 54.2255 10.146C54.2442 10.1927 54.3002 10.244 54.3935 10.3C54.4868 10.3467 54.6222 10.37 54.7995 10.37L54.9535 11.042C53.9735 11.014 53.3575 11 53.1055 11C52.8535 11 52.4148 11.014 51.7895 11.042L51.6495 10.37C51.9668 10.3607 52.1815 10.3233 52.2935 10.258C52.4055 10.1833 52.4662 10.076 52.4755 9.936V6.576C52.4755 6.352 52.4242 6.198 52.3215 6.114C52.2188 6.02067 52.0882 5.974 51.9295 5.974C51.7802 5.974 51.6682 5.97867 51.5935 5.988L51.3975 5.414C51.9762 5.274 52.7602 5.008 53.7495 4.616C53.8708 4.616 53.9455 4.644 53.9735 4.7C54.0108 4.74667 54.0388 4.78867 54.0575 4.826C54.0762 4.86333 54.0902 4.91467 54.0995 4.98ZM67.0533 11.042L64.5333 10.972C64.0387 10.972 63.432 10.986 62.7133 11.014L62.5453 10.258C62.9933 10.2487 63.2873 10.202 63.4273 10.118C63.5767 10.034 63.6513 9.91267 63.6513 9.754V2.292C63.6513 2.124 63.586 1.998 63.4553 1.914C63.334 1.83 63.0867 1.788 62.7133 1.788L62.5313 1.032C63.6513 1.06 64.3047 1.074 64.4913 1.074L67.2913 1.046C69.1393 1.046 70.586 1.466 71.6313 2.306C72.6767 3.13667 73.1993 4.336 73.1993 5.904C73.1993 7.46267 72.6627 8.70867 71.5893 9.642C70.5253 10.5753 69.0133 11.042 67.0533 11.042ZM67.4313 10.16C68.598 10.16 69.4893 9.81 70.1053 9.11C70.7213 8.41 71.0293 7.39733 71.0293 6.072C71.0293 4.73733 70.6747 3.706 69.9653 2.978C69.2653 2.24067 68.262 1.872 66.9553 1.872H65.9053C65.6627 1.872 65.5413 1.90467 65.5413 1.97V9.236C65.5413 9.47867 65.5647 9.65133 65.6113 9.754C65.658 9.85667 65.8213 9.95 66.1013 10.034C66.3813 10.118 66.8247 10.16 67.4313 10.16ZM79.1078 4.728C79.4158 4.728 79.7144 4.81667 80.0038 4.994C80.3024 5.17133 80.4844 5.34867 80.5498 5.526C80.6338 5.48867 80.7691 5.42333 80.9558 5.33C81.1518 5.22733 81.3058 5.15267 81.4178 5.106C81.5298 5.05 81.6698 4.98933 81.8378 4.924C82.1364 4.79333 82.4491 4.728 82.7758 4.728C83.3638 4.728 83.8258 4.91933 84.1618 5.302C84.5071 5.67533 84.6798 6.226 84.6798 6.954V9.936C84.6798 10.02 84.6844 10.09 84.6938 10.146C84.7124 10.1927 84.7684 10.244 84.8618 10.3C84.9551 10.3467 85.0904 10.37 85.2678 10.37L85.4218 11.042C84.4418 11.014 83.8258 11 83.5738 11C83.3218 11 82.8831 11.014 82.2578 11.042L82.1178 10.37C82.4351 10.3607 82.6498 10.3233 82.7618 10.258C82.8738 10.1833 82.9344 10.076 82.9438 9.936V7.416C82.9438 6.90267 82.8551 6.53867 82.6778 6.324C82.5004 6.1 82.2251 5.988 81.8518 5.988C81.4784 5.988 81.1051 6.072 80.7318 6.24C80.7598 6.408 80.7738 6.646 80.7738 6.954L80.7458 9.936C80.7458 10.02 80.7504 10.09 80.7598 10.146C80.7784 10.1927 80.8344 10.244 80.9278 10.3C81.0211 10.3467 81.1564 10.37 81.3338 10.37L81.4878 11.042C80.5078 11.014 79.8918 11 79.6398 11C79.3878 11 78.9491 11.014 78.3238 11.042L78.1838 10.37C78.5011 10.3607 78.7158 10.3233 78.8278 10.258C78.9398 10.1833 79.0004 10.076 79.0098 9.936V7.416C79.0098 6.73467 78.8651 6.30533 78.5758 6.128C78.4264 6.03467 78.2164 5.988 77.9458 5.988C77.6751 5.988 77.2878 6.09533 76.7838 6.31V9.936C76.7838 10.02 76.7884 10.09 76.7978 10.146C76.8164 10.1927 76.8724 10.244 76.9658 10.3C77.0591 10.3467 77.1944 10.37 77.3718 10.37L77.5258 11.042C76.5458 11.014 75.9298 11 75.6778 11C75.4258 11 74.9871 11.014 74.3618 11.042L74.2218 10.37C74.5391 10.3607 74.7538 10.3233 74.8658 10.258C74.9778 10.1833 75.0384 10.076 75.0478 9.936V6.576C75.0478 6.352 74.9964 6.198 74.8938 6.114C74.7911 6.02067 74.6604 5.974 74.5018 5.974C74.3524 5.974 74.2404 5.97867 74.1658 5.988L73.9698 5.414C74.5484 5.274 75.3324 5.008 76.3218 4.616C76.4431 4.616 76.5178 4.644 76.5458 4.7C76.5831 4.74667 76.6111 4.78867 76.6298 4.826C76.6484 4.86333 76.6624 4.91467 76.6718 4.98C76.6811 5.04533 76.6858 5.10133 76.6858 5.148C76.6858 5.19467 76.6904 5.26467 76.6998 5.358C76.7091 5.45133 76.7138 5.52133 76.7138 5.568C76.7324 5.55867 76.8071 5.52133 76.9378 5.456C77.0778 5.38133 77.1944 5.32067 77.2878 5.274C77.3904 5.22733 77.5258 5.16667 77.6938 5.092C77.8618 5.01733 78.0111 4.95667 78.1418 4.91C78.4778 4.78867 78.7998 4.728 79.1078 4.728ZM88.9303 4.938V9.936C88.9303 10.0853 88.9816 10.1973 89.0843 10.272C89.1963 10.3373 89.4203 10.37 89.7563 10.37L89.9103 11.042C88.9303 11.014 88.249 11 87.8663 11C87.493 11 86.9936 11.014 86.3683 11.042L86.2283 10.37C86.611 10.3607 86.8676 10.3233 86.9983 10.258C87.129 10.1833 87.1943 10.076 87.1943 9.936V6.576C87.1943 6.36133 87.1383 6.198 87.0263 6.086C86.9143 5.96467 86.6903 5.904 86.3543 5.904H86.1723L85.9763 5.33C86.8163 5.134 87.647 4.896 88.4683 4.616C88.6643 4.616 88.7903 4.63933 88.8463 4.686C88.9023 4.72333 88.9303 4.80733 88.9303 4.938ZM88.0343 3.286C87.7823 3.286 87.563 3.202 87.3763 3.034C87.1896 2.866 87.0963 2.65133 87.0963 2.39C87.0963 2.12867 87.1943 1.9 87.3903 1.704C87.5956 1.508 87.8243 1.41 88.0763 1.41C88.3283 1.41 88.5476 1.494 88.7343 1.662C88.921 1.83 89.0143 2.04467 89.0143 2.306C89.0143 2.56733 88.9116 2.796 88.7063 2.992C88.5103 3.188 88.2863 3.286 88.0343 3.286ZM92.897 8.97C92.897 9.34333 92.967 9.63733 93.107 9.852C93.2563 10.0667 93.4477 10.174 93.681 10.174C93.9143 10.174 94.1897 10.0527 94.507 9.81C94.5817 9.754 94.6377 9.74933 94.675 9.796L94.955 10.174C94.7123 10.4073 94.521 10.58 94.381 10.692C93.9797 11 93.5037 11.154 92.953 11.154C92.4023 11.154 91.959 10.972 91.623 10.608C91.2963 10.2347 91.133 9.81933 91.133 9.362V5.862H90.433L90.363 5.344C90.8763 5.176 91.2637 4.952 91.525 4.672C91.7957 4.38267 92.0477 4.00467 92.281 3.538H92.617C92.7103 3.538 92.771 3.55667 92.799 3.594C92.827 3.63133 92.841 3.69667 92.841 3.79L92.897 4.98H94.675C94.6937 5.064 94.703 5.18067 94.703 5.33C94.703 5.47933 94.6423 5.65667 94.521 5.862H92.911L92.897 8.97ZM99.6359 4.728C100.205 4.728 100.593 4.868 100.798 5.148C100.798 5.26933 100.737 5.43733 100.616 5.652C100.504 5.86667 100.387 6.05333 100.266 6.212C100.145 6.37067 100.07 6.45 100.042 6.45L98.8659 6.016H98.8099C98.6326 6.03467 98.4833 6.14667 98.3619 6.352C98.2499 6.548 98.1939 6.8 98.1939 7.108V9.936C98.1939 10.0853 98.2639 10.1973 98.4039 10.272C98.5439 10.3373 98.8426 10.37 99.2999 10.37L99.4539 11.042C98.4739 11.014 97.7459 11 97.2699 11C96.8033 11 96.2573 11.014 95.6319 11.042L95.4919 10.37C95.8746 10.3607 96.1313 10.3233 96.2619 10.258C96.3926 10.1833 96.4579 10.076 96.4579 9.936V6.576C96.4579 6.352 96.4066 6.198 96.3039 6.114C96.2013 6.02067 96.0706 5.974 95.9119 5.974C95.7626 5.974 95.6506 5.97867 95.5759 5.988L95.3799 5.414C95.9586 5.274 96.7426 5.008 97.7319 4.616C97.8813 4.616 97.9606 4.672 97.9699 4.784C97.9886 4.896 98.0026 5.05933 98.0119 5.274C98.0306 5.48867 98.0446 5.63333 98.0539 5.708C98.1846 5.512 98.4086 5.302 98.7259 5.078C99.0433 4.84467 99.3466 4.728 99.6359 4.728ZM104.12 4.938V9.936C104.12 10.0853 104.171 10.1973 104.274 10.272C104.386 10.3373 104.61 10.37 104.946 10.37L105.1 11.042C104.12 11.014 103.438 11 103.056 11C102.682 11 102.183 11.014 101.558 11.042L101.418 10.37C101.8 10.3607 102.057 10.3233 102.188 10.258C102.318 10.1833 102.384 10.076 102.384 9.936V6.576C102.384 6.36133 102.328 6.198 102.216 6.086C102.104 5.96467 101.88 5.904 101.544 5.904H101.362L101.166 5.33C102.006 5.134 102.836 4.896 103.658 4.616C103.854 4.616 103.98 4.63933 104.036 4.686C104.092 4.72333 104.12 4.80733 104.12 4.938ZM103.224 3.286C102.972 3.286 102.752 3.202 102.566 3.034C102.379 2.866 102.286 2.65133 102.286 2.39C102.286 2.12867 102.384 1.9 102.58 1.704C102.785 1.508 103.014 1.41 103.266 1.41C103.518 1.41 103.737 1.494 103.924 1.662C104.11 1.83 104.204 2.04467 104.204 2.306C104.204 2.56733 104.101 2.796 103.896 2.992C103.7 3.188 103.476 3.286 103.224 3.286ZM109.64 4.938L110.942 4.98C111.129 4.98 111.54 4.966 112.174 4.938L112.314 5.61C112.09 5.61933 111.918 5.652 111.796 5.708C111.675 5.764 111.577 5.876 111.502 6.044C109.43 10.832 108.38 13.2493 108.352 13.296C108.334 13.352 108.25 13.4967 108.1 13.73C107.96 13.9727 107.83 14.1453 107.708 14.248C107.596 14.36 107.433 14.4673 107.218 14.57C107.013 14.682 106.761 14.738 106.462 14.738C106.173 14.738 105.907 14.6353 105.664 14.43C105.664 14.2807 105.725 14.0613 105.846 13.772C105.977 13.492 106.075 13.352 106.14 13.352C106.327 13.3987 106.565 13.422 106.854 13.422C107.088 13.422 107.354 13.1373 107.652 12.568C107.96 11.9987 108.217 11.4247 108.422 10.846L106.294 6.226C106.108 5.81533 105.786 5.61 105.328 5.61L105.174 4.938C106.154 4.966 106.808 4.98 107.134 4.98C107.47 4.98 107.956 4.966 108.59 4.938L108.73 5.61C108.394 5.61933 108.175 5.66133 108.072 5.736C107.979 5.80133 107.96 5.90867 108.016 6.058L109.178 9.082L110.354 6.044C110.41 5.904 110.396 5.79667 110.312 5.722C110.238 5.64733 110.065 5.61 109.794 5.61L109.64 4.938ZM112.692 10.986C112.562 10.8647 112.496 10.5287 112.496 9.978C112.496 9.782 112.52 9.67 112.566 9.642C112.772 9.446 113.061 9.348 113.434 9.348C113.817 9.348 114.13 9.47867 114.372 9.74C114.615 10.0013 114.736 10.3467 114.736 10.776C114.736 11.196 114.582 11.686 114.274 12.246C113.976 12.8153 113.542 13.3007 112.972 13.702C112.954 13.702 112.916 13.702 112.86 13.702C112.804 13.702 112.706 13.674 112.566 13.618C112.426 13.562 112.328 13.4967 112.272 13.422C112.786 12.946 113.098 12.6147 113.21 12.428C113.416 12.0733 113.518 11.756 113.518 11.476C113.518 11.196 113.411 11.028 113.196 10.972C113.094 10.9533 113 10.944 112.916 10.944C112.832 10.944 112.758 10.958 112.692 10.986ZM124.308 2.516C123.533 2.516 122.857 2.92667 122.278 3.748C122.175 3.748 122.063 3.71067 121.942 3.636C121.821 3.552 121.751 3.44933 121.732 3.328C122.497 1.99333 123.552 1.326 124.896 1.326C125.764 1.326 126.487 1.55 127.066 1.998C127.645 2.43667 127.934 3.048 127.934 3.832C127.934 4.37333 127.794 4.88667 127.514 5.372C127.262 5.81067 127.024 6.16533 126.8 6.436C126.585 6.70667 126.375 6.96333 126.17 7.206C125.965 7.43933 125.792 7.64 125.652 7.808C125.512 7.976 125.33 8.17667 125.106 8.41C124.891 8.634 124.639 8.886 124.35 9.166C124.07 9.43667 123.916 9.586 123.888 9.614H126.17C126.553 9.614 126.823 9.52533 126.982 9.348C127.141 9.16133 127.304 8.78333 127.472 8.214L128.158 8.55C128.158 8.89533 128.116 9.32933 128.032 9.852C128.023 9.91733 127.892 10.3747 127.64 11.224C127.22 11.0747 126.45 11 125.33 11H124.308C123.179 11 122.255 11.028 121.536 11.084C121.443 10.8507 121.396 10.6687 121.396 10.538L122.054 10.02C122.81 9.404 123.515 8.69467 124.168 7.892C125.325 6.464 125.904 5.19467 125.904 4.084C125.904 3.59867 125.755 3.216 125.456 2.936C125.157 2.656 124.775 2.516 124.308 2.516ZM133.113 11.168C131.937 11.168 130.99 10.734 130.271 9.866C129.562 8.998 129.207 7.85 129.207 6.422C129.207 4.98467 129.562 3.776 130.271 2.796C130.981 1.80667 131.919 1.312 133.085 1.312C134.261 1.312 135.213 1.76467 135.941 2.67C136.669 3.566 137.033 4.728 137.033 6.156C137.033 7.584 136.674 8.77867 135.955 9.74C135.246 10.692 134.299 11.168 133.113 11.168ZM133.379 10.216C133.967 10.216 134.415 9.86133 134.723 9.152C135.041 8.44267 135.199 7.58867 135.199 6.59C135.199 5.47933 135.045 4.504 134.737 3.664C134.569 3.216 134.331 2.86133 134.023 2.6C133.715 2.33867 133.351 2.208 132.931 2.208C132.371 2.208 131.914 2.57667 131.559 3.314C131.214 4.05133 131.041 4.87267 131.041 5.778C131.041 6.93533 131.191 7.92933 131.489 8.76C131.657 9.208 131.9 9.56267 132.217 9.824C132.544 10.0853 132.931 10.216 133.379 10.216ZM140.441 2.516C139.666 2.516 138.989 2.92667 138.411 3.748C138.308 3.748 138.196 3.71067 138.075 3.636C137.953 3.552 137.883 3.44933 137.865 3.328C138.63 1.99333 139.685 1.326 141.029 1.326C141.897 1.326 142.62 1.55 143.199 1.998C143.777 2.43667 144.067 3.048 144.067 3.832C144.067 4.37333 143.927 4.88667 143.647 5.372C143.395 5.81067 143.157 6.16533 142.933 6.436C142.718 6.70667 142.508 6.96333 142.303 7.206C142.097 7.43933 141.925 7.64 141.785 7.808C141.645 7.976 141.463 8.17667 141.239 8.41C141.024 8.634 140.772 8.886 140.483 9.166C140.203 9.43667 140.049 9.586 140.021 9.614H142.303C142.685 9.614 142.956 9.52533 143.115 9.348C143.273 9.16133 143.437 8.78333 143.605 8.214L144.291 8.55C144.291 8.89533 144.249 9.32933 144.165 9.852C144.155 9.91733 144.025 10.3747 143.773 11.224C143.353 11.0747 142.583 11 141.463 11H140.441C139.311 11 138.387 11.028 137.669 11.084C137.575 10.8507 137.529 10.6687 137.529 10.538L138.187 10.02C138.943 9.404 139.647 8.69467 140.301 7.892C141.458 6.464 142.037 5.19467 142.037 4.084C142.037 3.59867 141.887 3.216 141.589 2.936C141.29 2.656 140.907 2.516 140.441 2.516ZM149.344 7.808H145.634C145.457 7.808 145.312 7.77067 145.2 7.696C145.098 7.62133 145.046 7.55133 145.046 7.486C145.046 7.41133 145.074 7.33667 145.13 7.262L150.212 1.48C150.296 1.38667 150.385 1.33533 150.478 1.326C150.581 1.31667 150.674 1.312 150.758 1.312H151.024C151.183 1.536 151.258 1.72733 151.248 1.886C151.118 2.10067 151.052 2.46933 151.052 2.992V6.632H151.388C151.976 6.632 152.406 6.548 152.676 6.38C152.826 6.548 152.9 6.702 152.9 6.842C152.9 7.206 152.76 7.598 152.48 8.018C152.06 7.88733 151.584 7.81733 151.052 7.808V11.168C150.315 11.1493 149.746 11.042 149.344 10.846V7.808ZM149.4 6.632V3.748L147.006 6.632H149.4Z" fill="url(#paint0_linear_1_35)"/>
<defs>
<linearGradient id="paint0_linear_1_35" x1="0" y1="7" x2="154" y2="7" gradientUnits="userSpaceOnUse">
<stop stop-color="white"/>
<stop offset="1" stop-color="#FF4949"/>
</linearGradient>
</defs>
</svg>
