<svg width="50" height="50" viewBox="0 0 50 50" fill="none" xmlns="http://www.w3.org/2000/svg">
<path d="M5 4C3.35503 4 2 5.35503 2 7V16V26V43C2 44.645 3.35503 46 5 46H45C46.645 46 48 44.645 48 43V11C48 9.35503 46.645 8 45 8H18C18.0866 8 17.969 8.00036 17.7246 7.71875C17.4802 7.43714 17.1794 6.96994 16.8652 6.46875C16.5511 5.96756 16.2218 5.43279 15.8066 4.96289C15.3915 4.49299 14.8188 4 14 4H5ZM5 6H14C13.9392 6 14.0611 6.00701 14.3086 6.28711C14.5561 6.56721 14.8572 7.03244 15.1699 7.53125C15.4826 8.03006 15.8064 8.56286 16.2129 9.03125C16.6194 9.49964 17.1789 10 18 10H45C45.565 10 46 10.435 46 11V13.1875C45.6851 13.0739 45.3518 13 45 13H5C4.64816 13 4.31489 13.0739 4 13.1875V7C4 6.43497 4.43497 6 5 6ZM5 15H45C45.565 15 46 15.435 46 16V43C46 43.565 45.565 44 45 44H5C4.43497 44 4 43.565 4 43V16C4 15.435 4.43497 15 5 15ZM24.9844 18.9863C24.7195 18.9905 24.4671 19.0995 24.2825 19.2896C24.098 19.4796 23.9964 19.7351 24 20V32.5859L20.707 29.293C20.6138 29.1972 20.5024 29.121 20.3793 29.069C20.2562 29.017 20.1239 28.9902 19.9902 28.9902C19.7913 28.9903 19.5969 29.0497 19.4319 29.1608C19.2669 29.2719 19.1388 29.4297 19.0639 29.614C18.989 29.7983 18.9709 30.0008 19.0117 30.1955C19.0525 30.3902 19.1504 30.5683 19.293 30.707L24.1504 35.5645C24.2434 35.7055 24.3707 35.8207 24.5203 35.8992C24.6699 35.9778 24.8369 36.0172 25.0059 36.0137C25.0065 36.0137 25.0072 36.0137 25.0078 36.0137C25.0085 36.0137 25.0091 36.0137 25.0098 36.0137C25.0111 36.0137 25.0124 36.0137 25.0137 36.0137C25.1803 36.0141 25.3445 35.9729 25.4911 35.8937C25.6378 35.8146 25.7624 35.7001 25.8535 35.5605L30.707 30.707C30.8515 30.5666 30.9502 30.3857 30.9902 30.1882C31.0301 29.9907 31.0095 29.7857 30.931 29.6001C30.8524 29.4145 30.7197 29.257 30.55 29.1482C30.3804 29.0393 30.1819 28.9843 29.9805 28.9902C29.7207 28.998 29.4741 29.1066 29.293 29.293L26 32.5859V20C26.0018 19.8662 25.9768 19.7334 25.9264 19.6095C25.876 19.4855 25.8012 19.373 25.7065 19.2784C25.6118 19.1839 25.4991 19.1094 25.375 19.0592C25.251 19.009 25.1182 18.9842 24.9844 18.9863ZM15 38C14.8675 37.9981 14.7359 38.0226 14.613 38.072C14.49 38.1214 14.3781 38.1948 14.2837 38.2878C14.1893 38.3809 14.1144 38.4918 14.0632 38.614C14.0121 38.7363 13.9858 38.8675 13.9858 39C13.9858 39.1325 14.0121 39.2637 14.0632 39.386C14.1144 39.5082 14.1893 39.6191 14.2837 39.7122C14.3781 39.8052 14.49 39.8786 14.613 39.928C14.7359 39.9774 14.8675 40.0019 15 40H35C35.1325 40.0019 35.2641 39.9774 35.387 39.928C35.51 39.8786 35.6219 39.8052 35.7163 39.7122C35.8107 39.6191 35.8856 39.5082 35.9368 39.386C35.9879 39.2637 36.0142 39.1325 36.0142 39C36.0142 38.8675 35.9879 38.7363 35.9368 38.614C35.8856 38.4918 35.8107 38.3809 35.7163 38.2878C35.6219 38.1948 35.51 38.1214 35.387 38.072C35.2641 38.0226 35.1325 37.9981 35 38H15Z" fill="#FF4D00"/>
</svg>
