<svg width="177" height="36" viewBox="0 0 177 36" fill="none" xmlns="http://www.w3.org/2000/svg">
<path d="M8.942 5.818V24.756C8.942 27.4307 8.18267 29.686 6.664 31.522C5.168 33.3807 3.4 34.7747 1.36 35.704C1.156 35.6813 0.997333 35.602 0.884 35.466C0.634667 35.126 0.51 34.9107 0.51 34.82C0.51 34.7293 0.634667 34.6047 0.884 34.446C1.99467 33.63 2.79933 32.4173 3.298 30.808C3.81933 29.1987 4.09133 27.0227 4.114 24.28L4.25 5.818C4.25 5.41 4.09133 5.104 3.774 4.9C3.47933 4.696 2.87867 4.594 1.972 4.594L1.53 2.758C4.25 2.826 6.10867 2.86 7.106 2.86C8.126 2.86 9.49733 2.826 11.22 2.758L11.628 4.594C10.54 4.61667 9.81467 4.73 9.452 4.934C9.112 5.138 8.942 5.43267 8.942 5.818ZM18.2604 19.282C18.2604 20.8233 18.6117 22.2173 19.3144 23.464C20.0397 24.688 21.0597 25.3 22.3744 25.3C23.6891 25.3 24.6297 24.79 25.1964 23.77C25.7857 22.7273 26.0804 21.424 26.0804 19.86C26.0804 18.296 25.7291 16.902 25.0264 15.678C24.3464 14.4313 23.3264 13.808 21.9664 13.808C20.6291 13.808 19.6771 14.3407 19.1104 15.406C18.5437 16.4487 18.2604 17.7407 18.2604 19.282ZM22.1024 27.408C19.6771 27.408 17.6937 26.7507 16.1524 25.436C14.6111 24.0987 13.8404 22.2627 13.8404 19.928C13.8404 17.5933 14.6337 15.6553 16.2204 14.114C17.8071 12.55 19.8017 11.768 22.2044 11.768C24.6297 11.768 26.6131 12.4707 28.1544 13.876C29.7184 15.2587 30.5004 17.1287 30.5004 19.486C30.5004 21.8433 29.7071 23.7587 28.1204 25.232C26.5337 26.6827 24.5277 27.408 22.1024 27.408ZM42.0458 12.278L45.0718 12.38C45.9784 12.38 46.9758 12.312 48.0638 12.176V23.158C48.0638 23.9513 48.1318 24.4047 48.2678 24.518C48.4264 24.6313 48.6304 24.688 48.8798 24.688H49.3898L50.1038 24.654L50.4098 26.422C48.8004 26.5127 47.0098 26.8413 45.0378 27.408C44.6071 27.408 44.3918 27.2833 44.3918 27.034L44.1878 25.504C42.2838 26.7733 40.7311 27.408 39.5298 27.408C35.9711 27.408 34.1918 25.6513 34.1918 22.138L34.2258 14.964C34.2258 14.76 34.2031 14.6013 34.1578 14.488C34.1351 14.352 34.0104 14.2273 33.7838 14.114C33.5571 13.978 33.2284 13.91 32.7978 13.91L32.4238 12.278L35.4498 12.38C36.3564 12.38 37.3538 12.312 38.4418 12.176V21.05C38.4418 23.2487 39.3258 24.348 41.0938 24.348C42.1818 24.348 43.0998 24.0307 43.8478 23.396V14.964C43.8478 14.76 43.8251 14.6013 43.7798 14.488C43.7571 14.352 43.6324 14.2273 43.4058 14.114C43.1791 13.978 42.8504 13.91 42.4198 13.91L42.0458 12.278ZM61.7796 11.768C63.1623 11.768 64.1029 12.108 64.6016 12.788C64.6016 13.0827 64.4543 13.4907 64.1596 14.012C63.8876 14.5333 63.6043 14.9867 63.3096 15.372C63.0149 15.7573 62.8336 15.95 62.7656 15.95L59.9096 14.896H59.7736C59.3429 14.9413 58.9803 15.2133 58.6856 15.712C58.4136 16.188 58.2776 16.8 58.2776 17.548V24.416C58.2776 24.7787 58.4476 25.0507 58.7876 25.232C59.1276 25.3907 59.8529 25.47 60.9636 25.47L61.3376 27.102C58.9576 27.034 57.1896 27 56.0336 27C54.9003 27 53.5743 27.034 52.0556 27.102L51.7156 25.47C52.6449 25.4473 53.2683 25.3567 53.5856 25.198C53.9029 25.0167 54.0616 24.756 54.0616 24.416V16.256C54.0616 15.712 53.9369 15.338 53.6876 15.134C53.4383 14.9073 53.1209 14.794 52.7356 14.794C52.3729 14.794 52.1009 14.8053 51.9196 14.828L51.4436 13.434C52.8489 13.094 54.7529 12.448 57.1556 11.496C57.5183 11.496 57.7109 11.632 57.7336 11.904C57.7789 12.176 57.8129 12.5727 57.8356 13.094C57.8809 13.6153 57.9149 13.9667 57.9376 14.148C58.2549 13.672 58.7989 13.162 59.5696 12.618C60.3403 12.0513 61.0769 11.768 61.7796 11.768ZM71.7849 12.38C71.8076 12.5387 71.8189 12.6747 71.8189 12.788C71.8189 12.9013 71.8302 13.0713 71.8529 13.298C71.8756 13.5247 71.8869 13.6947 71.8869 13.808C73.6096 12.9013 74.8676 12.3347 75.6609 12.108C76.4542 11.8813 77.1342 11.768 77.7009 11.768C79.0156 11.768 80.0809 12.244 80.8969 13.196C81.7129 14.148 82.1209 15.5307 82.1209 17.344V24.416C82.1209 24.62 82.1322 24.79 82.1549 24.926C82.2002 25.0393 82.3362 25.164 82.5629 25.3C82.7896 25.4133 83.1182 25.47 83.5489 25.47L83.9229 27.102C81.5429 27.034 80.0469 27 79.4349 27C78.8229 27 77.7576 27.034 76.2389 27.102L75.8989 25.47C76.6696 25.4473 77.1909 25.3567 77.4629 25.198C77.7349 25.0167 77.8822 24.756 77.9049 24.416V18.364C77.9049 17.1627 77.7009 16.2787 77.2929 15.712C76.9076 15.1227 76.2389 14.828 75.2869 14.828C74.3576 14.828 73.2809 15.0887 72.0569 15.61V24.416C72.0569 24.62 72.0682 24.79 72.0909 24.926C72.1362 25.0393 72.2722 25.164 72.4989 25.3C72.7256 25.4133 73.0542 25.47 73.4849 25.47L73.8589 27.102C71.4789 27.034 69.9829 27 69.3709 27C68.7589 27 67.6936 27.034 66.1749 27.102L65.8349 25.47C66.6056 25.4473 67.1269 25.3567 67.3989 25.198C67.6709 25.0167 67.8182 24.756 67.8409 24.416V16.256C67.8409 15.712 67.7162 15.338 67.4669 15.134C67.2176 14.9073 66.9002 14.794 66.5149 14.794C66.1522 14.794 65.8802 14.8053 65.6989 14.828L65.2229 13.434C66.6282 13.094 68.5322 12.448 70.9349 11.496C71.2296 11.496 71.4109 11.564 71.4789 11.7C71.5696 11.8133 71.6376 11.9153 71.6829 12.006C71.7282 12.0967 71.7622 12.2213 71.7849 12.38ZM93.07 20.778C91.642 21.0727 90.6673 21.424 90.146 21.832C89.6246 22.2173 89.364 22.682 89.364 23.226C89.364 23.7473 89.5453 24.1667 89.908 24.484C90.2933 24.8013 90.792 24.96 91.404 24.96C92.016 24.96 92.594 24.7107 93.138 24.212L93.07 20.778ZM99.428 24.654L99.7 26.048C99.3146 26.2067 98.51 26.4787 97.286 26.864C96.0846 27.2267 95.3366 27.408 95.042 27.408C94.7473 27.408 94.532 27.374 94.396 27.306C94.26 27.238 94.1353 27.1133 94.022 26.932C93.9086 26.7507 93.8293 26.6147 93.784 26.524C93.7386 26.4107 93.6706 26.218 93.58 25.946C93.4893 25.6513 93.4326 25.47 93.41 25.402C92.186 26.7393 90.792 27.408 89.228 27.408C88.208 27.408 87.3466 27.0907 86.644 26.456C85.9413 25.7987 85.59 24.994 85.59 24.042C85.59 22.75 86.1 21.798 87.12 21.186C88.1626 20.5513 90.112 19.928 92.968 19.316V18.092C92.968 16.7773 92.8206 15.8027 92.526 15.168C92.2313 14.5107 91.71 14.182 90.962 14.182C90.2366 14.182 89.67 14.2953 89.262 14.522V16.698C89.262 16.834 88.8993 16.97 88.174 17.106C87.4486 17.242 86.916 17.31 86.576 17.31C86.236 17.31 86.066 16.902 86.066 16.086C86.066 15.7007 86.134 15.2927 86.27 14.862C86.406 14.4313 86.5533 14.1253 86.712 13.944C87.12 13.4907 87.9926 13.0147 89.33 12.516C90.69 12.0173 91.7213 11.768 92.424 11.768C93.8973 11.768 95.042 12.2213 95.858 13.128C96.6966 14.0347 97.116 15.372 97.116 17.14V24.042C97.116 24.4727 97.2973 24.688 97.66 24.688L98.578 24.654H99.428ZM107.691 1.942V24.416C107.691 24.7787 107.816 25.0507 108.065 25.232C108.337 25.3907 108.881 25.47 109.697 25.47L110.071 27.102C107.691 27.034 106.036 27 105.107 27C104.178 27 102.954 27.034 101.435 27.102L101.095 25.47C102.024 25.4473 102.648 25.3567 102.965 25.198C103.305 25.0167 103.475 24.756 103.475 24.416V5.954C103.475 5.11533 103.339 4.58267 103.067 4.356C102.795 4.12933 102.478 4.016 102.115 4.016C101.775 4.016 101.492 4.02733 101.265 4.05L100.823 2.758C103.226 2.146 105.175 1.54533 106.671 0.955999C107.102 0.955999 107.374 1.04667 107.487 1.228C107.623 1.38667 107.691 1.62467 107.691 1.942ZM127.486 9.864L127.384 14.556C127.384 15.848 127.418 17.242 127.486 18.738L125.514 19.112C125.514 17.82 125.491 16.9927 125.446 16.63C125.4 16.2673 125.287 16.086 125.106 16.086H119.53V24.042C119.53 24.4727 119.734 24.79 120.142 24.994C120.572 25.1753 121.468 25.266 122.828 25.266L123.27 27.102C120.55 27.034 118.521 27 117.184 27C115.846 27 114.305 27.034 112.56 27.102L112.152 25.266C113.24 25.2433 113.954 25.13 114.294 24.926C114.656 24.722 114.838 24.4273 114.838 24.042V5.818C114.838 5.41 114.679 5.104 114.362 4.9C114.067 4.696 113.466 4.594 112.56 4.594L112.118 2.758C114.838 2.826 116.424 2.86 116.878 2.86H130.988C131.26 3.63066 131.396 4.696 131.396 6.056C131.396 7.39333 131.339 8.538 131.226 9.49L129.73 9.252C129.48 7.688 129.061 6.566 128.472 5.886C127.905 5.206 127.078 4.866 125.99 4.866H120.924C119.994 4.91133 119.53 4.968 119.53 5.036V13.434H125.174C125.446 13.434 125.582 12.346 125.582 10.17L127.486 9.864ZM142.596 11.768C143.979 11.768 144.919 12.108 145.418 12.788C145.418 13.0827 145.271 13.4907 144.976 14.012C144.704 14.5333 144.421 14.9867 144.126 15.372C143.831 15.7573 143.65 15.95 143.582 15.95L140.726 14.896H140.59C140.159 14.9413 139.797 15.2133 139.502 15.712C139.23 16.188 139.094 16.8 139.094 17.548V24.416C139.094 24.7787 139.264 25.0507 139.604 25.232C139.944 25.3907 140.669 25.47 141.78 25.47L142.154 27.102C139.774 27.034 138.006 27 136.85 27C135.717 27 134.391 27.034 132.872 27.102L132.532 25.47C133.461 25.4473 134.085 25.3567 134.402 25.198C134.719 25.0167 134.878 24.756 134.878 24.416V16.256C134.878 15.712 134.753 15.338 134.504 15.134C134.255 14.9073 133.937 14.794 133.552 14.794C133.189 14.794 132.917 14.8053 132.736 14.828L132.26 13.434C133.665 13.094 135.569 12.448 137.972 11.496C138.335 11.496 138.527 11.632 138.55 11.904C138.595 12.176 138.629 12.5727 138.652 13.094C138.697 13.6153 138.731 13.9667 138.754 14.148C139.071 13.672 139.615 13.162 140.386 12.618C141.157 12.0513 141.893 11.768 142.596 11.768ZM160.387 18.976H151.139C151.139 20.2907 151.389 21.526 151.887 22.682C152.182 23.362 152.658 23.9173 153.315 24.348C153.995 24.7787 154.766 24.994 155.627 24.994C156.489 24.994 157.282 24.824 158.007 24.484C158.755 24.1213 159.254 23.8153 159.503 23.566C159.775 23.294 159.968 23.226 160.081 23.362L160.625 24.11C159.855 25.062 158.891 25.8553 157.735 26.49C156.602 27.102 155.491 27.408 154.403 27.408C151.955 27.408 150.063 26.7167 148.725 25.334C147.388 23.9287 146.719 22.0473 146.719 19.69C146.719 17.31 147.467 15.3947 148.963 13.944C150.459 12.4933 152.171 11.768 154.097 11.768C156.024 11.768 157.599 12.3233 158.823 13.434C160.07 14.5447 160.693 16.222 160.693 18.466C160.693 18.806 160.591 18.976 160.387 18.976ZM156.783 16.936C156.783 14.8733 155.933 13.842 154.233 13.842C153.395 13.842 152.715 14.1593 152.193 14.794C151.672 15.4287 151.366 16.1427 151.275 16.936H156.783ZM176.557 18.976H167.309C167.309 20.2907 167.559 21.526 168.057 22.682C168.352 23.362 168.828 23.9173 169.485 24.348C170.165 24.7787 170.936 24.994 171.797 24.994C172.659 24.994 173.452 24.824 174.177 24.484C174.925 24.1213 175.424 23.8153 175.673 23.566C175.945 23.294 176.138 23.226 176.251 23.362L176.795 24.11C176.025 25.062 175.061 25.8553 173.905 26.49C172.772 27.102 171.661 27.408 170.573 27.408C168.125 27.408 166.233 26.7167 164.895 25.334C163.558 23.9287 162.889 22.0473 162.889 19.69C162.889 17.31 163.637 15.3947 165.133 13.944C166.629 12.4933 168.341 11.768 170.267 11.768C172.194 11.768 173.769 12.3233 174.993 13.434C176.24 14.5447 176.863 16.222 176.863 18.466C176.863 18.806 176.761 18.976 176.557 18.976ZM172.953 16.936C172.953 14.8733 172.103 13.842 170.403 13.842C169.565 13.842 168.885 14.1593 168.363 14.794C167.842 15.4287 167.536 16.1427 167.445 16.936H172.953Z" fill="url(#paint0_linear_1_32)"/>
<defs>
<linearGradient id="paint0_linear_1_32" x1="0" y1="17" x2="178" y2="17" gradientUnits="userSpaceOnUse">
<stop stop-color="white"/>
<stop offset="1" stop-color="#FF4949"/>
</linearGradient>
</defs>
</svg>
