<svg width="18" height="18" viewBox="0 0 18 18" fill="none" xmlns="http://www.w3.org/2000/svg">
<path d="M0 3.59487V14.406C0 15.4014 0.376799 16.2862 0.979356 16.9772C1.58191 17.6408 2.36042 18 3.26425 18H8.18514V15.7606H3.26425C2.58618 15.7606 2.05914 15.1519 2.05914 14.406V3.59487C2.05914 2.84811 2.58618 2.2677 3.26425 2.2677H8.18514V0H3.26425C2.36042 0 1.58191 0.387535 0.979356 1.05112C0.376799 1.74214 0 2.59949 0 3.59487ZM5.39811 6.85794V11.1713C5.39811 11.6694 5.79981 12.0835 6.25213 12.0835H10.7962V15.4846C10.7962 15.7889 10.9473 16.0376 11.1979 16.1756C11.2983 16.203 11.3988 16.203 11.4494 16.203C11.6253 16.203 11.7756 16.1473 11.9017 16.0092L17.802 9.5114C18.0783 9.26278 18.0534 8.76465 17.802 8.4886L11.9017 2.01819C11.5498 1.60323 10.797 1.85185 10.797 2.51632V5.94485H6.25294C5.80062 5.94485 5.39891 6.35981 5.39891 6.85706L5.39811 6.85794Z" fill="white"/>
</svg>
