<svg width="18" height="20" viewBox="0 0 18 20" fill="none" xmlns="http://www.w3.org/2000/svg">
<path d="M7.57691 0.574097C7.12541 0.574097 6.73945 0.893252 6.65273 1.33627L6.33792 2.95266C5.56428 3.24521 4.84893 3.65392 4.22077 4.16956L2.67066 3.63567C2.24366 3.48863 1.77387 3.66519 1.54765 4.05542L0.1264 6.51867C-0.0988786 6.90985 -0.016888 7.40646 0.323387 7.70243L1.56606 8.7831C1.50143 9.18026 1.45928 9.58458 1.45928 9.99999C1.45928 10.4154 1.50143 10.8197 1.56606 11.2169L0.323387 12.2976C-0.016888 12.5935 -0.0988786 13.0901 0.1264 13.4813L1.54765 15.9446C1.77293 16.3357 2.24366 16.5123 2.67066 16.3662L4.22077 15.8323C4.84872 16.3476 5.56463 16.7549 6.33792 17.0473L6.65273 18.6637C6.73945 19.1067 7.12541 19.4259 7.57691 19.4259H10.4231C10.8746 19.4259 11.2606 19.1067 11.3473 18.6637L11.6621 17.0473C12.4357 16.7548 13.1511 16.3461 13.7792 15.8304L15.3293 16.3643C15.7563 16.5114 16.2261 16.3357 16.4523 15.9446L17.8736 13.4795C18.0989 13.0883 18.0169 12.5935 17.6766 12.2976L16.4339 11.2169C16.4986 10.8197 16.5407 10.4154 16.5407 9.99999C16.5407 9.58458 16.4986 9.18026 16.4339 8.7831L17.6766 7.70243C18.0169 7.40646 18.0989 6.90985 17.8736 6.51867L16.4523 4.05542C16.2271 3.66424 15.7563 3.48773 15.3293 3.63383L13.7792 4.16772C13.1513 3.6524 12.4354 3.24508 11.6621 2.95266L11.3473 1.33627C11.2606 0.893252 10.8746 0.574097 10.4231 0.574097H7.57691ZM9 6.22964C11.0822 6.22964 12.7704 7.91781 12.7704 9.99999C12.7704 12.0822 11.0822 13.7704 9 13.7704C6.91782 13.7704 5.22964 12.0822 5.22964 9.99999C5.22964 7.91781 6.91782 6.22964 9 6.22964Z" fill="white"/>
</svg>
