<svg width="900" height="650" viewBox="0 0 900 650" fill="none" xmlns="http://www.w3.org/2000/svg">
<g clip-path="url(#clip0_1_5)">
<rect width="900" height="650" rx="15" fill="url(#paint0_radial_1_5)"/>
<path d="M28.942 13.818V32.756C28.942 35.4307 28.1827 37.686 26.664 39.522C25.168 41.3807 23.4 42.7747 21.36 43.704C21.156 43.6813 20.9973 43.602 20.884 43.466C20.6347 43.126 20.51 42.9107 20.51 42.82C20.51 42.7293 20.6347 42.6047 20.884 42.446C21.9947 41.63 22.7993 40.4173 23.298 38.808C23.8193 37.1987 24.0913 35.0227 24.114 32.28L24.25 13.818C24.25 13.41 24.0913 13.104 23.774 12.9C23.4793 12.696 22.8787 12.594 21.972 12.594L21.53 10.758C24.25 10.826 26.1087 10.86 27.106 10.86C28.126 10.86 29.4973 10.826 31.22 10.758L31.628 12.594C30.54 12.6167 29.8147 12.73 29.452 12.934C29.112 13.138 28.942 13.4327 28.942 13.818ZM38.2604 27.282C38.2604 28.8233 38.6117 30.2173 39.3144 31.464C40.0397 32.688 41.0597 33.3 42.3744 33.3C43.6891 33.3 44.6297 32.79 45.1964 31.77C45.7857 30.7273 46.0804 29.424 46.0804 27.86C46.0804 26.296 45.7291 24.902 45.0264 23.678C44.3464 22.4313 43.3264 21.808 41.9664 21.808C40.6291 21.808 39.6771 22.3407 39.1104 23.406C38.5437 24.4487 38.2604 25.7407 38.2604 27.282ZM42.1024 35.408C39.6771 35.408 37.6937 34.7507 36.1524 33.436C34.6111 32.0987 33.8404 30.2627 33.8404 27.928C33.8404 25.5933 34.6337 23.6553 36.2204 22.114C37.8071 20.55 39.8017 19.768 42.2044 19.768C44.6297 19.768 46.6131 20.4707 48.1544 21.876C49.7184 23.2587 50.5004 25.1287 50.5004 27.486C50.5004 29.8433 49.7071 31.7587 48.1204 33.232C46.5337 34.6827 44.5277 35.408 42.1024 35.408ZM62.0458 20.278L65.0718 20.38C65.9784 20.38 66.9758 20.312 68.0638 20.176V31.158C68.0638 31.9513 68.1318 32.4047 68.2678 32.518C68.4264 32.6313 68.6304 32.688 68.8798 32.688H69.3898L70.1038 32.654L70.4098 34.422C68.8004 34.5127 67.0098 34.8413 65.0378 35.408C64.6071 35.408 64.3918 35.2833 64.3918 35.034L64.1878 33.504C62.2838 34.7733 60.7311 35.408 59.5298 35.408C55.9711 35.408 54.1918 33.6513 54.1918 30.138L54.2258 22.964C54.2258 22.76 54.2031 22.6013 54.1578 22.488C54.1351 22.352 54.0104 22.2273 53.7838 22.114C53.5571 21.978 53.2284 21.91 52.7978 21.91L52.4238 20.278L55.4498 20.38C56.3564 20.38 57.3538 20.312 58.4418 20.176V29.05C58.4418 31.2487 59.3258 32.348 61.0938 32.348C62.1818 32.348 63.0998 32.0307 63.8478 31.396V22.964C63.8478 22.76 63.8251 22.6013 63.7798 22.488C63.7571 22.352 63.6324 22.2273 63.4058 22.114C63.1791 21.978 62.8504 21.91 62.4198 21.91L62.0458 20.278ZM81.7796 19.768C83.1623 19.768 84.1029 20.108 84.6016 20.788C84.6016 21.0827 84.4543 21.4907 84.1596 22.012C83.8876 22.5333 83.6043 22.9867 83.3096 23.372C83.0149 23.7573 82.8336 23.95 82.7656 23.95L79.9096 22.896H79.7736C79.3429 22.9413 78.9803 23.2133 78.6856 23.712C78.4136 24.188 78.2776 24.8 78.2776 25.548V32.416C78.2776 32.7787 78.4476 33.0507 78.7876 33.232C79.1276 33.3907 79.8529 33.47 80.9636 33.47L81.3376 35.102C78.9576 35.034 77.1896 35 76.0336 35C74.9003 35 73.5743 35.034 72.0556 35.102L71.7156 33.47C72.6449 33.4473 73.2683 33.3567 73.5856 33.198C73.9029 33.0167 74.0616 32.756 74.0616 32.416V24.256C74.0616 23.712 73.9369 23.338 73.6876 23.134C73.4383 22.9073 73.1209 22.794 72.7356 22.794C72.3729 22.794 72.1009 22.8053 71.9196 22.828L71.4436 21.434C72.8489 21.094 74.7529 20.448 77.1556 19.496C77.5183 19.496 77.7109 19.632 77.7336 19.904C77.7789 20.176 77.8129 20.5727 77.8356 21.094C77.8809 21.6153 77.9149 21.9667 77.9376 22.148C78.2549 21.672 78.7989 21.162 79.5696 20.618C80.3403 20.0513 81.0769 19.768 81.7796 19.768ZM91.7849 20.38C91.8076 20.5387 91.8189 20.6747 91.8189 20.788C91.8189 20.9013 91.8302 21.0713 91.8529 21.298C91.8756 21.5247 91.8869 21.6947 91.8869 21.808C93.6096 20.9013 94.8676 20.3347 95.6609 20.108C96.4542 19.8813 97.1342 19.768 97.7009 19.768C99.0156 19.768 100.081 20.244 100.897 21.196C101.713 22.148 102.121 23.5307 102.121 25.344V32.416C102.121 32.62 102.132 32.79 102.155 32.926C102.2 33.0393 102.336 33.164 102.563 33.3C102.79 33.4133 103.118 33.47 103.549 33.47L103.923 35.102C101.543 35.034 100.047 35 99.4349 35C98.8229 35 97.7576 35.034 96.2389 35.102L95.8989 33.47C96.6696 33.4473 97.1909 33.3567 97.4629 33.198C97.7349 33.0167 97.8822 32.756 97.9049 32.416V26.364C97.9049 25.1627 97.7009 24.2787 97.2929 23.712C96.9076 23.1227 96.2389 22.828 95.2869 22.828C94.3576 22.828 93.2809 23.0887 92.0569 23.61V32.416C92.0569 32.62 92.0682 32.79 92.0909 32.926C92.1362 33.0393 92.2722 33.164 92.4989 33.3C92.7256 33.4133 93.0542 33.47 93.4849 33.47L93.8589 35.102C91.4789 35.034 89.9829 35 89.3709 35C88.7589 35 87.6936 35.034 86.1749 35.102L85.8349 33.47C86.6056 33.4473 87.1269 33.3567 87.3989 33.198C87.6709 33.0167 87.8182 32.756 87.8409 32.416V24.256C87.8409 23.712 87.7162 23.338 87.4669 23.134C87.2176 22.9073 86.9002 22.794 86.5149 22.794C86.1522 22.794 85.8802 22.8053 85.6989 22.828L85.2229 21.434C86.6282 21.094 88.5322 20.448 90.9349 19.496C91.2296 19.496 91.4109 19.564 91.4789 19.7C91.5696 19.8133 91.6376 19.9153 91.6829 20.006C91.7282 20.0967 91.7622 20.2213 91.7849 20.38ZM113.07 28.778C111.642 29.0727 110.667 29.424 110.146 29.832C109.625 30.2173 109.364 30.682 109.364 31.226C109.364 31.7473 109.545 32.1667 109.908 32.484C110.293 32.8013 110.792 32.96 111.404 32.96C112.016 32.96 112.594 32.7107 113.138 32.212L113.07 28.778ZM119.428 32.654L119.7 34.048C119.315 34.2067 118.51 34.4787 117.286 34.864C116.085 35.2267 115.337 35.408 115.042 35.408C114.747 35.408 114.532 35.374 114.396 35.306C114.26 35.238 114.135 35.1133 114.022 34.932C113.909 34.7507 113.829 34.6147 113.784 34.524C113.739 34.4107 113.671 34.218 113.58 33.946C113.489 33.6513 113.433 33.47 113.41 33.402C112.186 34.7393 110.792 35.408 109.228 35.408C108.208 35.408 107.347 35.0907 106.644 34.456C105.941 33.7987 105.59 32.994 105.59 32.042C105.59 30.75 106.1 29.798 107.12 29.186C108.163 28.5513 110.112 27.928 112.968 27.316V26.092C112.968 24.7773 112.821 23.8027 112.526 23.168C112.231 22.5107 111.71 22.182 110.962 22.182C110.237 22.182 109.67 22.2953 109.262 22.522V24.698C109.262 24.834 108.899 24.97 108.174 25.106C107.449 25.242 106.916 25.31 106.576 25.31C106.236 25.31 106.066 24.902 106.066 24.086C106.066 23.7007 106.134 23.2927 106.27 22.862C106.406 22.4313 106.553 22.1253 106.712 21.944C107.12 21.4907 107.993 21.0147 109.33 20.516C110.69 20.0173 111.721 19.768 112.424 19.768C113.897 19.768 115.042 20.2213 115.858 21.128C116.697 22.0347 117.116 23.372 117.116 25.14V32.042C117.116 32.4727 117.297 32.688 117.66 32.688L118.578 32.654H119.428ZM127.691 9.942V32.416C127.691 32.7787 127.816 33.0507 128.065 33.232C128.337 33.3907 128.881 33.47 129.697 33.47L130.071 35.102C127.691 35.034 126.036 35 125.107 35C124.178 35 122.954 35.034 121.435 35.102L121.095 33.47C122.024 33.4473 122.648 33.3567 122.965 33.198C123.305 33.0167 123.475 32.756 123.475 32.416V13.954C123.475 13.1153 123.339 12.5827 123.067 12.356C122.795 12.1293 122.478 12.016 122.115 12.016C121.775 12.016 121.492 12.0273 121.265 12.05L120.823 10.758C123.226 10.146 125.175 9.54533 126.671 8.956C127.102 8.956 127.374 9.04667 127.487 9.228C127.623 9.38667 127.691 9.62467 127.691 9.942ZM147.486 17.864L147.384 22.556C147.384 23.848 147.418 25.242 147.486 26.738L145.514 27.112C145.514 25.82 145.491 24.9927 145.446 24.63C145.4 24.2673 145.287 24.086 145.106 24.086H139.53V32.042C139.53 32.4727 139.734 32.79 140.142 32.994C140.572 33.1753 141.468 33.266 142.828 33.266L143.27 35.102C140.55 35.034 138.521 35 137.184 35C135.846 35 134.305 35.034 132.56 35.102L132.152 33.266C133.24 33.2433 133.954 33.13 134.294 32.926C134.656 32.722 134.838 32.4273 134.838 32.042V13.818C134.838 13.41 134.679 13.104 134.362 12.9C134.067 12.696 133.466 12.594 132.56 12.594L132.118 10.758C134.838 10.826 136.424 10.86 136.878 10.86H150.988C151.26 11.6307 151.396 12.696 151.396 14.056C151.396 15.3933 151.339 16.538 151.226 17.49L149.73 17.252C149.48 15.688 149.061 14.566 148.472 13.886C147.905 13.206 147.078 12.866 145.99 12.866H140.924C139.994 12.9113 139.53 12.968 139.53 13.036V21.434H145.174C145.446 21.434 145.582 20.346 145.582 18.17L147.486 17.864ZM162.596 19.768C163.979 19.768 164.919 20.108 165.418 20.788C165.418 21.0827 165.271 21.4907 164.976 22.012C164.704 22.5333 164.421 22.9867 164.126 23.372C163.831 23.7573 163.65 23.95 163.582 23.95L160.726 22.896H160.59C160.159 22.9413 159.797 23.2133 159.502 23.712C159.23 24.188 159.094 24.8 159.094 25.548V32.416C159.094 32.7787 159.264 33.0507 159.604 33.232C159.944 33.3907 160.669 33.47 161.78 33.47L162.154 35.102C159.774 35.034 158.006 35 156.85 35C155.717 35 154.391 35.034 152.872 35.102L152.532 33.47C153.461 33.4473 154.085 33.3567 154.402 33.198C154.719 33.0167 154.878 32.756 154.878 32.416V24.256C154.878 23.712 154.753 23.338 154.504 23.134C154.255 22.9073 153.937 22.794 153.552 22.794C153.189 22.794 152.917 22.8053 152.736 22.828L152.26 21.434C153.665 21.094 155.569 20.448 157.972 19.496C158.335 19.496 158.527 19.632 158.55 19.904C158.595 20.176 158.629 20.5727 158.652 21.094C158.697 21.6153 158.731 21.9667 158.754 22.148C159.071 21.672 159.615 21.162 160.386 20.618C161.157 20.0513 161.893 19.768 162.596 19.768ZM180.387 26.976H171.139C171.139 28.2907 171.389 29.526 171.887 30.682C172.182 31.362 172.658 31.9173 173.315 32.348C173.995 32.7787 174.766 32.994 175.627 32.994C176.489 32.994 177.282 32.824 178.007 32.484C178.755 32.1213 179.254 31.8153 179.503 31.566C179.775 31.294 179.968 31.226 180.081 31.362L180.625 32.11C179.855 33.062 178.891 33.8553 177.735 34.49C176.602 35.102 175.491 35.408 174.403 35.408C171.955 35.408 170.063 34.7167 168.725 33.334C167.388 31.9287 166.719 30.0473 166.719 27.69C166.719 25.31 167.467 23.3947 168.963 21.944C170.459 20.4933 172.171 19.768 174.097 19.768C176.024 19.768 177.599 20.3233 178.823 21.434C180.07 22.5447 180.693 24.222 180.693 26.466C180.693 26.806 180.591 26.976 180.387 26.976ZM176.783 24.936C176.783 22.8733 175.933 21.842 174.233 21.842C173.395 21.842 172.715 22.1593 172.193 22.794C171.672 23.4287 171.366 24.1427 171.275 24.936H176.783ZM196.557 26.976H187.309C187.309 28.2907 187.559 29.526 188.057 30.682C188.352 31.362 188.828 31.9173 189.485 32.348C190.165 32.7787 190.936 32.994 191.797 32.994C192.659 32.994 193.452 32.824 194.177 32.484C194.925 32.1213 195.424 31.8153 195.673 31.566C195.945 31.294 196.138 31.226 196.251 31.362L196.795 32.11C196.025 33.062 195.061 33.8553 193.905 34.49C192.772 35.102 191.661 35.408 190.573 35.408C188.125 35.408 186.233 34.7167 184.895 33.334C183.558 31.9287 182.889 30.0473 182.889 27.69C182.889 25.31 183.637 23.3947 185.133 21.944C186.629 20.4933 188.341 19.768 190.267 19.768C192.194 19.768 193.769 20.3233 194.993 21.434C196.24 22.5447 196.863 24.222 196.863 26.466C196.863 26.806 196.761 26.976 196.557 26.976ZM192.953 24.936C192.953 22.8733 192.103 21.842 190.403 21.842C189.565 21.842 188.885 22.1593 188.363 22.794C187.842 23.4287 187.536 24.1427 187.445 24.936H192.953Z" fill="url(#paint1_linear_1_5)"/>
<g clip-path="url(#clip1_1_5)">
<path d="M815 25H835" stroke="white" stroke-width="4"/>
<path d="M868.455 16.0002C868.245 16.0002 868.036 16.08 867.876 16.2399L866.24 17.8762C865.92 18.1961 865.92 18.7141 866.24 19.0332L872.207 25L866.24 30.9668C865.92 31.2867 865.92 31.8047 866.24 32.1238L867.876 33.7601C868.196 34.08 868.714 34.08 869.033 33.7601L875 27.7933L880.967 33.7601C881.286 34.08 881.805 34.08 882.124 33.7601L883.76 32.1238C884.08 31.8039 884.08 31.2859 883.76 30.9668L877.793 25L883.76 19.0332C884.08 18.7141 884.08 18.1953 883.76 17.8762L882.124 16.2399C881.804 15.92 881.286 15.92 880.967 16.2399L875 22.2067L869.033 16.2399C868.873 16.08 868.664 16.0002 868.455 16.0002Z" fill="white"/>
</g>
<g filter="url(#filter0_b_1_5)">
<rect x="250" y="150" width="400" height="350" rx="20" fill="white" fill-opacity="0.5"/>
<path d="M415.757 203V185.545H422.439C423.7 185.545 424.748 185.744 425.583 186.142C426.424 186.534 427.052 187.071 427.467 187.753C427.887 188.435 428.098 189.207 428.098 190.071C428.098 190.781 427.961 191.389 427.689 191.895C427.416 192.395 427.049 192.801 426.589 193.114C426.129 193.426 425.615 193.651 425.047 193.787V193.957C425.666 193.991 426.26 194.182 426.828 194.528C427.402 194.869 427.87 195.352 428.234 195.977C428.598 196.602 428.779 197.358 428.779 198.244C428.779 199.148 428.561 199.96 428.123 200.682C427.686 201.398 427.027 201.963 426.146 202.378C425.265 202.793 424.157 203 422.822 203H415.757ZM418.919 200.358H422.319C423.467 200.358 424.294 200.139 424.799 199.702C425.311 199.259 425.566 198.69 425.566 197.997C425.566 197.48 425.439 197.014 425.183 196.599C424.927 196.179 424.564 195.849 424.092 195.611C423.62 195.366 423.058 195.244 422.404 195.244H418.919V200.358ZM418.919 192.969H422.047C422.592 192.969 423.083 192.869 423.521 192.67C423.958 192.466 424.302 192.179 424.552 191.81C424.808 191.435 424.936 190.991 424.936 190.48C424.936 189.804 424.697 189.247 424.22 188.81C423.748 188.372 423.047 188.153 422.115 188.153H418.919V192.969ZM437.104 203.256C435.826 203.256 434.718 202.974 433.78 202.412C432.843 201.849 432.115 201.062 431.598 200.051C431.087 199.04 430.831 197.858 430.831 196.506C430.831 195.153 431.087 193.969 431.598 192.952C432.115 191.935 432.843 191.145 433.78 190.582C434.718 190.02 435.826 189.739 437.104 189.739C438.382 189.739 439.49 190.02 440.428 190.582C441.365 191.145 442.09 191.935 442.601 192.952C443.118 193.969 443.377 195.153 443.377 196.506C443.377 197.858 443.118 199.04 442.601 200.051C442.09 201.062 441.365 201.849 440.428 202.412C439.49 202.974 438.382 203.256 437.104 203.256ZM437.121 200.784C437.814 200.784 438.394 200.594 438.86 200.213C439.326 199.827 439.672 199.31 439.9 198.662C440.132 198.014 440.249 197.293 440.249 196.497C440.249 195.696 440.132 194.972 439.9 194.324C439.672 193.67 439.326 193.151 438.86 192.764C438.394 192.378 437.814 192.185 437.121 192.185C436.411 192.185 435.82 192.378 435.348 192.764C434.882 193.151 434.533 193.67 434.3 194.324C434.073 194.972 433.959 195.696 433.959 196.497C433.959 197.293 434.073 198.014 434.3 198.662C434.533 199.31 434.882 199.827 435.348 200.213C435.82 200.594 436.411 200.784 437.121 200.784ZM448.97 198.824L454.211 189.909H457.382V203H454.399V194.077L449.174 203H445.995V189.909H448.97V198.824ZM453.368 185.409H455.677C455.677 186.403 455.316 187.21 454.595 187.83C453.879 188.443 452.907 188.75 451.68 188.75C450.464 188.75 449.495 188.443 448.774 187.83C448.058 187.21 447.703 186.403 447.708 185.409H450.001C450.001 185.818 450.126 186.185 450.376 186.509C450.632 186.827 451.066 186.986 451.68 186.986C452.282 186.986 452.711 186.827 452.967 186.509C453.228 186.19 453.362 185.824 453.368 185.409ZM459.084 192.44V189.909H470.539V192.44H466.303V203H463.32V192.44H459.084ZM475.97 198.824L481.211 189.909H484.382V203H481.399V194.077L476.174 203H472.995V189.909H475.97V198.824Z" fill="white"/>
<path d="M315.064 227V217.545H318.369C319.028 217.545 319.571 217.659 319.999 217.887C320.427 218.112 320.745 218.415 320.954 218.797C321.164 219.175 321.268 219.595 321.268 220.057C321.268 220.463 321.196 220.799 321.051 221.063C320.91 221.328 320.722 221.537 320.488 221.691C320.257 221.845 320.007 221.959 319.736 222.033V222.125C320.025 222.143 320.316 222.245 320.608 222.43C320.901 222.614 321.145 222.879 321.342 223.224C321.539 223.568 321.638 223.99 321.638 224.489C321.638 224.963 321.53 225.389 321.315 225.767C321.099 226.146 320.759 226.446 320.294 226.668C319.83 226.889 319.225 227 318.48 227H315.064ZM316.209 225.984H318.48C319.228 225.984 319.759 225.84 320.073 225.55C320.39 225.258 320.548 224.904 320.548 224.489C320.548 224.169 320.467 223.873 320.304 223.602C320.14 223.328 319.908 223.11 319.606 222.947C319.305 222.781 318.948 222.697 318.535 222.697H316.209V225.984ZM316.209 221.7H318.332C318.677 221.7 318.988 221.633 319.265 221.497C319.545 221.362 319.766 221.171 319.93 220.925C320.096 220.679 320.179 220.389 320.179 220.057C320.179 219.641 320.034 219.289 319.745 219C319.456 218.707 318.997 218.561 318.369 218.561H316.209V221.7ZM323.371 227V219.909H326.27C327.034 219.909 327.64 220.081 328.089 220.426C328.539 220.771 328.763 221.226 328.763 221.793C328.763 222.223 328.636 222.557 328.38 222.794C328.125 223.028 327.797 223.187 327.397 223.27C327.658 223.307 327.912 223.399 328.158 223.547C328.408 223.695 328.614 223.898 328.777 224.156C328.94 224.412 329.022 224.726 329.022 225.098C329.022 225.461 328.929 225.786 328.745 226.072C328.56 226.358 328.295 226.585 327.951 226.751C327.606 226.917 327.194 227 326.714 227H323.371ZM324.405 226.003H326.714C327.089 226.003 327.383 225.914 327.595 225.735C327.808 225.557 327.914 225.313 327.914 225.006C327.914 224.639 327.808 224.352 327.595 224.142C327.383 223.93 327.089 223.824 326.714 223.824H324.405V226.003ZM324.405 222.882H326.27C326.563 222.882 326.814 222.842 327.023 222.762C327.232 222.679 327.392 222.562 327.503 222.411C327.617 222.257 327.674 222.076 327.674 221.866C327.674 221.568 327.549 221.334 327.3 221.165C327.051 220.992 326.707 220.906 326.27 220.906H324.405V222.882ZM333.644 227.148C332.961 227.148 332.371 226.997 331.876 226.695C331.383 226.391 331.003 225.966 330.736 225.421C330.471 224.873 330.339 224.236 330.339 223.51C330.339 222.784 330.471 222.143 330.736 221.589C331.003 221.032 331.376 220.598 331.853 220.288C332.333 219.974 332.893 219.817 333.533 219.817C333.903 219.817 334.267 219.878 334.627 220.001C334.987 220.125 335.315 220.325 335.611 220.602C335.906 220.875 336.142 221.239 336.317 221.691C336.492 222.143 336.58 222.701 336.58 223.362V223.824H331.114V222.882H335.472C335.472 222.482 335.392 222.125 335.232 221.811C335.075 221.497 334.85 221.249 334.558 221.068C334.269 220.886 333.927 220.795 333.533 220.795C333.099 220.795 332.724 220.903 332.407 221.119C332.093 221.331 331.851 221.608 331.682 221.95C331.513 222.291 331.428 222.657 331.428 223.048V223.676C331.428 224.212 331.52 224.666 331.705 225.038C331.893 225.407 332.153 225.689 332.485 225.883C332.818 226.074 333.204 226.169 333.644 226.169C333.93 226.169 334.189 226.129 334.42 226.049C334.653 225.966 334.855 225.843 335.024 225.68C335.194 225.513 335.324 225.307 335.417 225.061L336.469 225.357C336.358 225.714 336.172 226.027 335.911 226.298C335.649 226.566 335.326 226.775 334.941 226.926C334.557 227.074 334.124 227.148 333.644 227.148ZM337.48 229.031V225.984H338.071C338.216 225.834 338.34 225.67 338.445 225.495C338.55 225.32 338.641 225.112 338.718 224.872C338.798 224.629 338.865 224.333 338.921 223.985C338.976 223.635 339.025 223.211 339.068 222.716L339.308 219.909H343.814V225.984H344.904V229.031H343.814V227H338.57V229.031H337.48ZM339.308 225.984H342.725V220.925H340.324L340.139 222.716C340.062 223.458 339.967 224.105 339.853 224.659C339.739 225.213 339.558 225.655 339.308 225.984ZM347.439 225.393L350.855 219.909H352.111V227H351.022V221.516L347.624 227H346.35V219.909H347.439V225.393ZM353.142 220.925V219.909H358.903V220.925H356.576V227H355.487V220.925H353.142ZM363.097 227.148C362.414 227.148 361.825 226.997 361.329 226.695C360.837 226.391 360.456 225.966 360.189 225.421C359.924 224.873 359.792 224.236 359.792 223.51C359.792 222.784 359.924 222.143 360.189 221.589C360.456 221.032 360.829 220.598 361.306 220.288C361.786 219.974 362.346 219.817 362.986 219.817C363.356 219.817 363.72 219.878 364.08 220.001C364.441 220.125 364.768 220.325 365.064 220.602C365.359 220.875 365.595 221.239 365.77 221.691C365.945 222.143 366.033 222.701 366.033 223.362V223.824H360.567V222.882H364.925C364.925 222.482 364.845 222.125 364.685 221.811C364.528 221.497 364.304 221.249 364.011 221.068C363.722 220.886 363.38 220.795 362.986 220.795C362.552 220.795 362.177 220.903 361.86 221.119C361.546 221.331 361.304 221.608 361.135 221.95C360.966 222.291 360.881 222.657 360.881 223.048V223.676C360.881 224.212 360.974 224.666 361.158 225.038C361.346 225.407 361.606 225.689 361.938 225.883C362.271 226.074 362.657 226.169 363.097 226.169C363.383 226.169 363.642 226.129 363.873 226.049C364.107 225.966 364.308 225.843 364.477 225.68C364.647 225.513 364.778 225.307 364.87 225.061L365.922 225.357C365.812 225.714 365.625 226.027 365.364 226.298C365.102 226.566 364.779 226.775 364.394 226.926C364.01 227.074 363.577 227.148 363.097 227.148ZM370.59 229.031V225.984H371.181C371.325 225.834 371.45 225.67 371.555 225.495C371.659 225.32 371.75 225.112 371.827 224.872C371.907 224.629 371.975 224.333 372.03 223.985C372.085 223.635 372.135 223.211 372.178 222.716L372.418 219.909H376.923V225.984H378.013V229.031H376.923V227H371.679V229.031H370.59ZM372.418 225.984H375.834V220.925H373.433L373.249 222.716C373.172 223.458 373.076 224.105 372.963 224.659C372.849 225.213 372.667 225.655 372.418 225.984ZM381.546 227.166C381.096 227.166 380.689 227.082 380.322 226.912C379.956 226.74 379.665 226.492 379.45 226.169C379.234 225.843 379.127 225.449 379.127 224.987C379.127 224.581 379.207 224.252 379.367 223.999C379.527 223.744 379.741 223.544 380.008 223.399C380.276 223.254 380.572 223.147 380.895 223.076C381.221 223.002 381.549 222.944 381.878 222.901C382.309 222.845 382.658 222.804 382.926 222.776C383.197 222.745 383.394 222.694 383.517 222.624C383.643 222.553 383.706 222.43 383.706 222.254V222.217C383.706 221.762 383.582 221.408 383.332 221.156C383.086 220.903 382.712 220.777 382.21 220.777C381.69 220.777 381.283 220.891 380.987 221.119C380.692 221.346 380.484 221.589 380.364 221.848L379.33 221.479C379.514 221.048 379.761 220.712 380.068 220.472C380.379 220.229 380.718 220.06 381.084 219.964C381.453 219.866 381.817 219.817 382.174 219.817C382.401 219.817 382.663 219.844 382.958 219.9C383.257 219.952 383.545 220.061 383.822 220.228C384.102 220.394 384.334 220.645 384.519 220.98C384.703 221.316 384.796 221.765 384.796 222.328V227H383.706V226.04H383.651C383.577 226.194 383.454 226.358 383.282 226.534C383.109 226.709 382.88 226.858 382.594 226.982C382.307 227.105 381.958 227.166 381.546 227.166ZM381.712 226.188C382.143 226.188 382.506 226.103 382.801 225.934C383.1 225.764 383.325 225.546 383.475 225.278C383.629 225.01 383.706 224.729 383.706 224.433V223.436C383.66 223.491 383.559 223.542 383.402 223.588C383.248 223.632 383.069 223.67 382.866 223.704C382.666 223.735 382.471 223.762 382.28 223.787C382.092 223.808 381.94 223.827 381.823 223.842C381.54 223.879 381.275 223.939 381.029 224.022C380.786 224.102 380.589 224.224 380.438 224.387C380.29 224.547 380.216 224.766 380.216 225.043C380.216 225.421 380.356 225.707 380.636 225.901C380.919 226.092 381.278 226.188 381.712 226.188ZM391.53 222.956V223.972H387.615V222.956H391.53ZM387.874 219.909V227H386.784V219.909H387.874ZM392.361 219.909V227H391.271V219.909H392.361ZM399.096 222.956V223.972H395.182V222.956H399.096ZM395.44 219.909V227H394.351V219.909H395.44ZM399.927 219.909V227H398.838V219.909H399.927ZM402.859 222.476H404.89C405.721 222.476 406.357 222.687 406.797 223.108C407.237 223.53 407.457 224.064 407.457 224.71C407.457 225.135 407.358 225.521 407.161 225.869C406.964 226.214 406.675 226.489 406.294 226.695C405.912 226.898 405.444 227 404.89 227H401.917V219.909H403.007V225.984H404.89C405.321 225.984 405.675 225.871 405.952 225.643C406.229 225.415 406.367 225.123 406.367 224.766C406.367 224.39 406.229 224.084 405.952 223.847C405.675 223.61 405.321 223.491 404.89 223.491H402.859V222.476ZM408.583 227V219.909H409.673V227H408.583ZM414.64 227.148C413.957 227.148 413.367 226.997 412.872 226.695C412.38 226.391 411.999 225.966 411.732 225.421C411.467 224.873 411.335 224.236 411.335 223.51C411.335 222.784 411.467 222.143 411.732 221.589C411.999 221.032 412.372 220.598 412.849 220.288C413.329 219.974 413.889 219.817 414.529 219.817C414.899 219.817 415.263 219.878 415.623 220.001C415.983 220.125 416.311 220.325 416.607 220.602C416.902 220.875 417.138 221.239 417.313 221.691C417.488 222.143 417.576 222.701 417.576 223.362V223.824H412.11V222.882H416.468C416.468 222.482 416.388 222.125 416.228 221.811C416.071 221.497 415.847 221.249 415.554 221.068C415.265 220.886 414.923 220.795 414.529 220.795C414.095 220.795 413.72 220.903 413.403 221.119C413.089 221.331 412.847 221.608 412.678 221.95C412.509 222.291 412.424 222.657 412.424 223.048V223.676C412.424 224.212 412.517 224.666 412.701 225.038C412.889 225.407 413.149 225.689 413.481 225.883C413.814 226.074 414.2 226.169 414.64 226.169C414.926 226.169 415.185 226.129 415.416 226.049C415.65 225.966 415.851 225.843 416.02 225.68C416.19 225.513 416.32 225.307 416.413 225.061L417.465 225.357C417.355 225.714 417.168 226.027 416.907 226.298C416.645 226.566 416.322 226.775 415.937 226.926C415.553 227.074 415.12 227.148 414.64 227.148ZM422.133 229.031V225.984H422.724C422.868 225.834 422.993 225.67 423.097 225.495C423.202 225.32 423.293 225.112 423.37 224.872C423.45 224.629 423.518 224.333 423.573 223.985C423.628 223.635 423.678 223.211 423.721 222.716L423.961 219.909H428.466V225.984H429.556V229.031H428.466V227H423.222V229.031H422.133ZM423.961 225.984H427.377V220.925H424.976L424.792 222.716C424.715 223.458 424.619 224.105 424.506 224.659C424.392 225.213 424.21 225.655 423.961 225.984ZM430.374 227V225.984H430.633C430.845 225.984 431.022 225.943 431.164 225.86C431.305 225.774 431.419 225.624 431.505 225.412C431.594 225.196 431.662 224.898 431.708 224.516C431.758 224.132 431.793 223.642 431.815 223.048L431.944 219.909H436.671V227H435.582V220.925H432.978L432.867 223.455C432.842 224.036 432.79 224.549 432.71 224.992C432.633 225.432 432.515 225.801 432.355 226.1C432.198 226.398 431.988 226.623 431.727 226.774C431.465 226.925 431.137 227 430.744 227H430.374ZM442.936 227V220.906H441.052C440.627 220.906 440.293 221.005 440.05 221.202C439.807 221.399 439.686 221.67 439.686 222.014C439.686 222.353 439.795 222.619 440.013 222.813C440.235 223.007 440.538 223.104 440.923 223.104H443.213V224.119H440.923C440.443 224.119 440.029 224.035 439.681 223.865C439.333 223.696 439.065 223.455 438.878 223.141C438.69 222.824 438.596 222.448 438.596 222.014C438.596 221.577 438.695 221.202 438.892 220.888C439.089 220.574 439.37 220.332 439.736 220.163C440.106 219.994 440.544 219.909 441.052 219.909H443.97V227H442.936ZM438.208 227L440.221 223.473H441.403L439.39 227H438.208ZM451.713 227.166C451.263 227.166 450.856 227.082 450.489 226.912C450.123 226.74 449.832 226.492 449.617 226.169C449.401 225.843 449.294 225.449 449.294 224.987C449.294 224.581 449.374 224.252 449.534 223.999C449.694 223.744 449.908 223.544 450.175 223.399C450.443 223.254 450.739 223.147 451.062 223.076C451.388 223.002 451.716 222.944 452.045 222.901C452.476 222.845 452.825 222.804 453.093 222.776C453.364 222.745 453.561 222.694 453.684 222.624C453.81 222.553 453.873 222.43 453.873 222.254V222.217C453.873 221.762 453.749 221.408 453.499 221.156C453.253 220.903 452.879 220.777 452.377 220.777C451.857 220.777 451.45 220.891 451.154 221.119C450.859 221.346 450.651 221.589 450.531 221.848L449.497 221.479C449.681 221.048 449.928 220.712 450.235 220.472C450.546 220.229 450.885 220.06 451.251 219.964C451.62 219.866 451.984 219.817 452.341 219.817C452.568 219.817 452.83 219.844 453.125 219.9C453.424 219.952 453.712 220.061 453.989 220.228C454.269 220.394 454.501 220.645 454.686 220.98C454.87 221.316 454.963 221.765 454.963 222.328V227H453.873V226.04H453.818C453.744 226.194 453.621 226.358 453.449 226.534C453.276 226.709 453.047 226.858 452.761 226.982C452.474 227.105 452.125 227.166 451.713 227.166ZM451.879 226.188C452.31 226.188 452.673 226.103 452.968 225.934C453.267 225.764 453.492 225.546 453.642 225.278C453.796 225.01 453.873 224.729 453.873 224.433V223.436C453.827 223.491 453.725 223.542 453.569 223.588C453.415 223.632 453.236 223.67 453.033 223.704C452.833 223.735 452.638 223.762 452.447 223.787C452.259 223.808 452.107 223.827 451.99 223.842C451.707 223.879 451.442 223.939 451.196 224.022C450.953 224.102 450.756 224.224 450.605 224.387C450.457 224.547 450.383 224.766 450.383 225.043C450.383 225.421 450.523 225.707 450.803 225.901C451.086 226.092 451.445 226.188 451.879 226.188ZM456.951 227V219.909H459.85C460.614 219.909 461.22 220.081 461.669 220.426C462.119 220.771 462.343 221.226 462.343 221.793C462.343 222.223 462.216 222.557 461.96 222.794C461.705 223.028 461.377 223.187 460.977 223.27C461.238 223.307 461.492 223.399 461.739 223.547C461.988 223.695 462.194 223.898 462.357 224.156C462.52 224.412 462.602 224.726 462.602 225.098C462.602 225.461 462.509 225.786 462.325 226.072C462.14 226.358 461.876 226.585 461.531 226.751C461.186 226.917 460.774 227 460.294 227H456.951ZM457.985 226.003H460.294C460.669 226.003 460.963 225.914 461.175 225.735C461.388 225.557 461.494 225.313 461.494 225.006C461.494 224.639 461.388 224.352 461.175 224.142C460.963 223.93 460.669 223.824 460.294 223.824H457.985V226.003ZM457.985 222.882H459.85C460.143 222.882 460.394 222.842 460.603 222.762C460.812 222.679 460.972 222.562 461.083 222.411C461.197 222.257 461.254 222.076 461.254 221.866C461.254 221.568 461.129 221.334 460.88 221.165C460.631 220.992 460.287 220.906 459.85 220.906H457.985V222.882ZM463.845 220.925V219.909H469.606V220.925H467.279V227H466.19V220.925H463.845ZM473.708 227.148C473.068 227.148 472.506 226.995 472.023 226.691C471.543 226.386 471.167 225.96 470.896 225.412C470.629 224.864 470.495 224.224 470.495 223.491C470.495 222.753 470.629 222.108 470.896 221.557C471.167 221.006 471.543 220.578 472.023 220.274C472.506 219.969 473.068 219.817 473.708 219.817C474.348 219.817 474.908 219.969 475.388 220.274C475.872 220.578 476.247 221.006 476.515 221.557C476.786 222.108 476.921 222.753 476.921 223.491C476.921 224.224 476.786 224.864 476.515 225.412C476.247 225.96 475.872 226.386 475.388 226.691C474.908 226.995 474.348 227.148 473.708 227.148ZM473.708 226.169C474.194 226.169 474.594 226.044 474.908 225.795C475.222 225.546 475.454 225.218 475.605 224.812C475.756 224.406 475.831 223.965 475.831 223.491C475.831 223.018 475.756 222.576 475.605 222.167C475.454 221.757 475.222 221.426 474.908 221.174C474.594 220.922 474.194 220.795 473.708 220.795C473.222 220.795 472.822 220.922 472.508 221.174C472.194 221.426 471.961 221.757 471.811 222.167C471.66 222.576 471.584 223.018 471.584 223.491C471.584 223.965 471.66 224.406 471.811 224.812C471.961 225.218 472.194 225.546 472.508 225.795C472.822 226.044 473.222 226.169 473.708 226.169ZM478.584 229.659V219.909H479.637V221.036H479.766C479.846 220.912 479.957 220.755 480.098 220.565C480.243 220.371 480.449 220.198 480.717 220.048C480.988 219.894 481.354 219.817 481.816 219.817C482.413 219.817 482.939 219.966 483.394 220.265C483.85 220.563 484.205 220.986 484.461 221.534C484.716 222.082 484.844 222.728 484.844 223.473C484.844 224.224 484.716 224.875 484.461 225.426C484.205 225.974 483.851 226.398 483.399 226.7C482.947 226.998 482.425 227.148 481.834 227.148C481.379 227.148 481.014 227.072 480.74 226.922C480.466 226.768 480.255 226.594 480.108 226.4C479.96 226.203 479.846 226.04 479.766 225.911H479.674V229.659H478.584ZM479.655 223.455C479.655 223.99 479.734 224.462 479.891 224.872C480.047 225.278 480.277 225.597 480.578 225.827C480.88 226.055 481.249 226.169 481.686 226.169C482.142 226.169 482.522 226.049 482.827 225.809C483.134 225.566 483.365 225.24 483.519 224.83C483.676 224.418 483.755 223.959 483.755 223.455C483.755 222.956 483.678 222.507 483.524 222.107C483.373 221.703 483.144 221.385 482.836 221.151C482.531 220.914 482.148 220.795 481.686 220.795C481.243 220.795 480.871 220.908 480.569 221.132C480.268 221.354 480.04 221.665 479.886 222.065C479.732 222.462 479.655 222.925 479.655 223.455ZM487.595 225.393L491.012 219.909H492.267V227H491.178V221.516L487.78 227H486.506V219.909H487.595V225.393ZM493.82 225.19H494.983C495.008 225.51 495.152 225.754 495.417 225.92C495.685 226.086 496.032 226.169 496.46 226.169C496.897 226.169 497.271 226.08 497.582 225.901C497.893 225.72 498.048 225.427 498.048 225.024C498.048 224.787 497.99 224.581 497.873 224.406C497.756 224.227 497.591 224.089 497.379 223.99C497.167 223.892 496.916 223.842 496.626 223.842H495.408V222.864H496.626C497.06 222.864 497.38 222.765 497.587 222.568C497.796 222.371 497.901 222.125 497.901 221.83C497.901 221.513 497.788 221.259 497.564 221.068C497.339 220.874 497.02 220.777 496.608 220.777C496.192 220.777 495.846 220.871 495.569 221.059C495.292 221.243 495.146 221.482 495.131 221.774H493.986C493.998 221.393 494.115 221.056 494.337 220.763C494.558 220.468 494.86 220.237 495.241 220.071C495.623 219.901 496.06 219.817 496.553 219.817C497.051 219.817 497.484 219.904 497.85 220.08C498.219 220.252 498.504 220.488 498.704 220.786C498.907 221.082 499.009 221.417 499.009 221.793C499.009 222.193 498.896 222.516 498.672 222.762C498.447 223.008 498.165 223.184 497.827 223.288V223.362C498.094 223.381 498.327 223.467 498.524 223.621C498.724 223.772 498.879 223.97 498.99 224.216C499.101 224.459 499.156 224.729 499.156 225.024C499.156 225.455 499.041 225.83 498.81 226.151C498.579 226.468 498.262 226.714 497.859 226.889C497.456 227.062 496.996 227.148 496.479 227.148C495.977 227.148 495.528 227.066 495.131 226.903C494.734 226.737 494.418 226.508 494.184 226.215C493.953 225.92 493.832 225.578 493.82 225.19ZM502.773 227.166C502.324 227.166 501.916 227.082 501.55 226.912C501.184 226.74 500.893 226.492 500.677 226.169C500.462 225.843 500.354 225.449 500.354 224.987C500.354 224.581 500.434 224.252 500.594 223.999C500.754 223.744 500.968 223.544 501.236 223.399C501.504 223.254 501.799 223.147 502.122 223.076C502.449 223.002 502.776 222.944 503.106 222.901C503.537 222.845 503.886 222.804 504.154 222.776C504.424 222.745 504.621 222.694 504.744 222.624C504.871 222.553 504.934 222.43 504.934 222.254V222.217C504.934 221.762 504.809 221.408 504.56 221.156C504.314 220.903 503.94 220.777 503.438 220.777C502.918 220.777 502.51 220.891 502.215 221.119C501.919 221.346 501.711 221.589 501.591 221.848L500.557 221.479C500.742 221.048 500.988 220.712 501.296 220.472C501.607 220.229 501.945 220.06 502.312 219.964C502.681 219.866 503.044 219.817 503.401 219.817C503.629 219.817 503.89 219.844 504.186 219.9C504.484 219.952 504.772 220.061 505.049 220.228C505.329 220.394 505.562 220.645 505.746 220.98C505.931 221.316 506.023 221.765 506.023 222.328V227H504.934V226.04H504.878C504.805 226.194 504.681 226.358 504.509 226.534C504.337 226.709 504.107 226.858 503.821 226.982C503.535 227.105 503.186 227.166 502.773 227.166ZM502.939 226.188C503.37 226.188 503.733 226.103 504.029 225.934C504.327 225.764 504.552 225.546 504.703 225.278C504.857 225.01 504.934 224.729 504.934 224.433V223.436C504.888 223.491 504.786 223.542 504.629 223.588C504.475 223.632 504.297 223.67 504.094 223.704C503.894 223.735 503.698 223.762 503.507 223.787C503.32 223.808 503.167 223.827 503.05 223.842C502.767 223.879 502.502 223.939 502.256 224.022C502.013 224.102 501.816 224.224 501.665 224.387C501.518 224.547 501.444 224.766 501.444 225.043C501.444 225.421 501.584 225.707 501.864 225.901C502.147 226.092 502.506 226.188 502.939 226.188ZM513.589 219.909V225.984H514.586V229.29H513.496V227H508.012V219.909H509.101V225.984H512.499V219.909H513.589ZM517.353 225.393L520.769 219.909H522.025V227H520.936V221.516L517.538 227H516.264V219.909H517.353V225.393ZM525.11 225.393L528.526 219.909H529.782V227H528.692V221.516L525.295 227H524.021V219.909H525.11V225.393ZM540.179 222.956V223.972H536.265V222.956H540.179ZM536.523 219.909V227H535.434V219.909H536.523ZM541.01 219.909V227H539.921V219.909H541.01ZM545.087 227.166C544.637 227.166 544.23 227.082 543.863 226.912C543.497 226.74 543.206 226.492 542.991 226.169C542.775 225.843 542.668 225.449 542.668 224.987C542.668 224.581 542.748 224.252 542.908 223.999C543.068 223.744 543.282 223.544 543.549 223.399C543.817 223.254 544.113 223.147 544.436 223.076C544.762 223.002 545.09 222.944 545.419 222.901C545.85 222.845 546.199 222.804 546.467 222.776C546.738 222.745 546.935 222.694 547.058 222.624C547.184 222.553 547.247 222.43 547.247 222.254V222.217C547.247 221.762 547.123 221.408 546.873 221.156C546.627 220.903 546.253 220.777 545.752 220.777C545.231 220.777 544.824 220.891 544.528 221.119C544.233 221.346 544.025 221.589 543.905 221.848L542.871 221.479C543.055 221.048 543.302 220.712 543.609 220.472C543.92 220.229 544.259 220.06 544.625 219.964C544.994 219.866 545.358 219.817 545.715 219.817C545.942 219.817 546.204 219.844 546.499 219.9C546.798 219.952 547.086 220.061 547.363 220.228C547.643 220.394 547.875 220.645 548.06 220.98C548.244 221.316 548.337 221.765 548.337 222.328V227H547.247V226.04H547.192C547.118 226.194 546.995 226.358 546.823 226.534C546.65 226.709 546.421 226.858 546.135 226.982C545.848 227.105 545.499 227.166 545.087 227.166ZM545.253 226.188C545.684 226.188 546.047 226.103 546.342 225.934C546.641 225.764 546.866 225.546 547.016 225.278C547.17 225.01 547.247 224.729 547.247 224.433V223.436C547.201 223.491 547.1 223.542 546.943 223.588C546.789 223.632 546.61 223.67 546.407 223.704C546.207 223.735 546.012 223.762 545.821 223.787C545.633 223.808 545.481 223.827 545.364 223.842C545.081 223.879 544.816 223.939 544.57 224.022C544.327 224.102 544.13 224.224 543.979 224.387C543.831 224.547 543.757 224.766 543.757 225.043C543.757 225.421 543.897 225.707 544.177 225.901C544.46 226.092 544.819 226.188 545.253 226.188ZM555.071 222.734V227H553.982V219.909H555.034V221.017H555.126C555.293 220.657 555.545 220.368 555.884 220.149C556.222 219.928 556.659 219.817 557.195 219.817C557.675 219.817 558.095 219.915 558.455 220.112C558.815 220.306 559.095 220.602 559.295 220.999C559.495 221.393 559.595 221.891 559.595 222.494V227H558.506V222.568C558.506 222.011 558.361 221.577 558.072 221.266C557.782 220.952 557.385 220.795 556.881 220.795C556.533 220.795 556.222 220.871 555.948 221.022C555.677 221.172 555.463 221.393 555.306 221.682C555.15 221.971 555.071 222.322 555.071 222.734ZM561.383 227V226.169L565.408 220.999V220.925H561.512V219.909H566.812V220.777L562.897 225.911V225.984H566.941V227H561.383ZM569.413 227.074C569.186 227.074 568.99 226.992 568.827 226.829C568.664 226.666 568.582 226.471 568.582 226.243C568.582 226.015 568.664 225.82 568.827 225.657C568.99 225.493 569.186 225.412 569.413 225.412C569.641 225.412 569.836 225.493 570 225.657C570.163 225.82 570.244 226.015 570.244 226.243C570.244 226.394 570.206 226.532 570.129 226.658C570.055 226.785 569.955 226.886 569.829 226.963C569.706 227.037 569.567 227.074 569.413 227.074ZM576.668 224.101V219.909H577.758V227H576.668V225.8H576.594C576.428 226.16 576.169 226.466 575.819 226.718C575.468 226.968 575.025 227.092 574.489 227.092C574.046 227.092 573.652 226.995 573.307 226.801C572.963 226.605 572.692 226.309 572.495 225.915C572.298 225.518 572.199 225.018 572.199 224.415V219.909H573.289V224.341C573.289 224.858 573.433 225.27 573.723 225.578C574.015 225.886 574.388 226.04 574.84 226.04C575.111 226.04 575.386 225.971 575.666 225.832C575.949 225.694 576.186 225.481 576.377 225.195C576.571 224.909 576.668 224.544 576.668 224.101ZM581.84 227.166C581.39 227.166 580.983 227.082 580.616 226.912C580.25 226.74 579.959 226.492 579.744 226.169C579.528 225.843 579.421 225.449 579.421 224.987C579.421 224.581 579.501 224.252 579.661 223.999C579.821 223.744 580.035 223.544 580.302 223.399C580.57 223.254 580.866 223.147 581.189 223.076C581.515 223.002 581.843 222.944 582.172 222.901C582.603 222.845 582.952 222.804 583.22 222.776C583.491 222.745 583.688 222.694 583.811 222.624C583.937 222.553 584 222.43 584 222.254V222.217C584 221.762 583.876 221.408 583.626 221.156C583.38 220.903 583.006 220.777 582.504 220.777C581.984 220.777 581.577 220.891 581.281 221.119C580.986 221.346 580.778 221.589 580.658 221.848L579.624 221.479C579.808 221.048 580.055 220.712 580.362 220.472C580.673 220.229 581.012 220.06 581.378 219.964C581.747 219.866 582.11 219.817 582.468 219.817C582.695 219.817 582.957 219.844 583.252 219.9C583.551 219.952 583.839 220.061 584.116 220.228C584.396 220.394 584.628 220.645 584.813 220.98C584.997 221.316 585.09 221.765 585.09 222.328V227H584V226.04H583.945C583.871 226.194 583.748 226.358 583.575 226.534C583.403 226.709 583.174 226.858 582.888 226.982C582.601 227.105 582.252 227.166 581.84 227.166ZM582.006 226.188C582.437 226.188 582.8 226.103 583.095 225.934C583.394 225.764 583.619 225.546 583.769 225.278C583.923 225.01 584 224.729 584 224.433V223.436C583.954 223.491 583.852 223.542 583.695 223.588C583.542 223.632 583.363 223.67 583.16 223.704C582.96 223.735 582.765 223.762 582.574 223.787C582.386 223.808 582.234 223.827 582.117 223.842C581.834 223.879 581.569 223.939 581.323 224.022C581.079 224.102 580.883 224.224 580.732 224.387C580.584 224.547 580.51 224.766 580.51 225.043C580.51 225.421 580.65 225.707 580.93 225.901C581.213 226.092 581.572 226.188 582.006 226.188Z" fill="white"/>
<path d="M276.145 260.545H277.271V267.987H277.364L282.534 260.545H283.642V270H282.497V262.577H282.405L277.253 270H276.145V260.545ZM289.663 268.523L292.138 262.909H293.172L290.106 270H289.22L286.21 262.909H287.226L289.663 268.523ZM286.875 262.909V270H285.785V262.909H286.875ZM292.451 270V262.909H293.541V270H292.451ZM299.801 270V263.906H297.917C297.493 263.906 297.159 264.005 296.916 264.202C296.672 264.399 296.551 264.67 296.551 265.014C296.551 265.353 296.66 265.619 296.879 265.813C297.1 266.007 297.403 266.104 297.788 266.104H300.078V267.119H297.788C297.308 267.119 296.894 267.035 296.546 266.865C296.198 266.696 295.931 266.455 295.743 266.141C295.555 265.824 295.461 265.448 295.461 265.014C295.461 264.577 295.56 264.202 295.757 263.888C295.954 263.574 296.235 263.332 296.602 263.163C296.971 262.994 297.41 262.909 297.917 262.909H300.835V270H299.801ZM295.074 270L297.086 266.473H298.268L296.255 270H295.074ZM306.491 270V262.909H312.068V270H310.979V263.925H307.581V270H306.491ZM316.938 270.148C316.298 270.148 315.737 269.995 315.253 269.691C314.773 269.386 314.398 268.96 314.127 268.412C313.859 267.864 313.725 267.224 313.725 266.491C313.725 265.753 313.859 265.108 314.127 264.557C314.398 264.006 314.773 263.578 315.253 263.274C315.737 262.969 316.298 262.817 316.938 262.817C317.579 262.817 318.139 262.969 318.619 263.274C319.102 263.578 319.477 264.006 319.745 264.557C320.016 265.108 320.151 265.753 320.151 266.491C320.151 267.224 320.016 267.864 319.745 268.412C319.477 268.96 319.102 269.386 318.619 269.691C318.139 269.995 317.579 270.148 316.938 270.148ZM316.938 269.169C317.425 269.169 317.825 269.044 318.139 268.795C318.453 268.546 318.685 268.218 318.836 267.812C318.987 267.406 319.062 266.965 319.062 266.491C319.062 266.018 318.987 265.576 318.836 265.167C318.685 264.757 318.453 264.426 318.139 264.174C317.825 263.922 317.425 263.795 316.938 263.795C316.452 263.795 316.052 263.922 315.738 264.174C315.424 264.426 315.192 264.757 315.041 265.167C314.89 265.576 314.815 266.018 314.815 266.491C314.815 266.965 314.89 267.406 315.041 267.812C315.192 268.218 315.424 268.546 315.738 268.795C316.052 269.044 316.452 269.169 316.938 269.169ZM321.187 270V268.984H321.445C321.658 268.984 321.835 268.943 321.976 268.86C322.118 268.774 322.232 268.624 322.318 268.412C322.407 268.196 322.475 267.898 322.521 267.516C322.57 267.132 322.605 266.642 322.627 266.048L322.756 262.909H327.484V270H326.394V263.925H323.79L323.68 266.455C323.655 267.036 323.603 267.549 323.523 267.992C323.446 268.432 323.327 268.801 323.167 269.1C323.01 269.398 322.801 269.623 322.539 269.774C322.278 269.925 321.95 270 321.556 270H321.187ZM330.424 265.476H332.456C333.286 265.476 333.922 265.687 334.362 266.108C334.802 266.53 335.022 267.064 335.022 267.71C335.022 268.135 334.924 268.521 334.727 268.869C334.53 269.214 334.241 269.489 333.859 269.695C333.477 269.898 333.009 270 332.456 270H329.483V262.909H330.572V268.984H332.456C332.886 268.984 333.24 268.871 333.517 268.643C333.794 268.415 333.933 268.123 333.933 267.766C333.933 267.39 333.794 267.084 333.517 266.847C333.24 266.61 332.886 266.491 332.456 266.491H330.424V265.476ZM336.238 268.19H337.401C337.426 268.51 337.57 268.754 337.835 268.92C338.103 269.086 338.45 269.169 338.878 269.169C339.315 269.169 339.689 269.08 340 268.901C340.311 268.72 340.466 268.427 340.466 268.024C340.466 267.787 340.408 267.581 340.291 267.406C340.174 267.227 340.009 267.089 339.797 266.99C339.585 266.892 339.334 266.842 339.044 266.842H337.826V265.864H339.044C339.478 265.864 339.798 265.765 340.005 265.568C340.214 265.371 340.319 265.125 340.319 264.83C340.319 264.513 340.206 264.259 339.982 264.068C339.757 263.874 339.438 263.777 339.026 263.777C338.61 263.777 338.264 263.871 337.987 264.059C337.71 264.243 337.564 264.482 337.549 264.774H336.404C336.416 264.393 336.533 264.056 336.755 263.763C336.976 263.468 337.278 263.237 337.659 263.071C338.041 262.901 338.478 262.817 338.971 262.817C339.469 262.817 339.902 262.904 340.268 263.08C340.637 263.252 340.922 263.488 341.122 263.786C341.325 264.082 341.426 264.417 341.426 264.793C341.426 265.193 341.314 265.516 341.089 265.762C340.865 266.008 340.583 266.184 340.245 266.288V266.362C340.512 266.381 340.745 266.467 340.942 266.621C341.142 266.772 341.297 266.97 341.408 267.216C341.519 267.459 341.574 267.729 341.574 268.024C341.574 268.455 341.459 268.83 341.228 269.151C340.997 269.468 340.68 269.714 340.277 269.889C339.874 270.062 339.414 270.148 338.897 270.148C338.395 270.148 337.946 270.066 337.549 269.903C337.152 269.737 336.836 269.508 336.602 269.215C336.371 268.92 336.25 268.578 336.238 268.19ZM345.985 270.148C345.345 270.148 344.783 269.995 344.3 269.691C343.82 269.386 343.445 268.96 343.174 268.412C342.906 267.864 342.772 267.224 342.772 266.491C342.772 265.753 342.906 265.108 343.174 264.557C343.445 264.006 343.82 263.578 344.3 263.274C344.783 262.969 345.345 262.817 345.985 262.817C346.625 262.817 347.186 262.969 347.666 263.274C348.149 263.578 348.524 264.006 348.792 264.557C349.063 265.108 349.198 265.753 349.198 266.491C349.198 267.224 349.063 267.864 348.792 268.412C348.524 268.96 348.149 269.386 347.666 269.691C347.186 269.995 346.625 270.148 345.985 270.148ZM345.985 269.169C346.472 269.169 346.872 269.044 347.186 268.795C347.499 268.546 347.732 268.218 347.883 267.812C348.033 267.406 348.109 266.965 348.109 266.491C348.109 266.018 348.033 265.576 347.883 265.167C347.732 264.757 347.499 264.426 347.186 264.174C346.872 263.922 346.472 263.795 345.985 263.795C345.499 263.795 345.099 263.922 344.785 264.174C344.471 264.426 344.239 264.757 344.088 265.167C343.937 265.576 343.862 266.018 343.862 266.491C343.862 266.965 343.937 267.406 344.088 267.812C344.239 268.218 344.471 268.546 344.785 268.795C345.099 269.044 345.499 269.169 345.985 269.169ZM350.861 270V262.909H353.761C354.524 262.909 355.13 263.081 355.579 263.426C356.029 263.771 356.253 264.226 356.253 264.793C356.253 265.223 356.126 265.557 355.87 265.794C355.615 266.028 355.287 266.187 354.887 266.27C355.149 266.307 355.402 266.399 355.649 266.547C355.898 266.695 356.104 266.898 356.267 267.156C356.43 267.412 356.512 267.726 356.512 268.098C356.512 268.461 356.42 268.786 356.235 269.072C356.05 269.358 355.786 269.585 355.441 269.751C355.096 269.917 354.684 270 354.204 270H350.861ZM351.896 269.003H354.204C354.579 269.003 354.873 268.914 355.085 268.735C355.298 268.557 355.404 268.313 355.404 268.006C355.404 267.639 355.298 267.352 355.085 267.142C354.873 266.93 354.579 266.824 354.204 266.824H351.896V269.003ZM351.896 265.882H353.761C354.053 265.882 354.304 265.842 354.513 265.762C354.722 265.679 354.882 265.562 354.993 265.411C355.107 265.257 355.164 265.076 355.164 264.866C355.164 264.568 355.039 264.334 354.79 264.165C354.541 263.992 354.198 263.906 353.761 263.906H351.896V265.882ZM360.248 270.166C359.799 270.166 359.391 270.082 359.025 269.912C358.658 269.74 358.367 269.492 358.152 269.169C357.937 268.843 357.829 268.449 357.829 267.987C357.829 267.581 357.909 267.252 358.069 266.999C358.229 266.744 358.443 266.544 358.711 266.399C358.978 266.254 359.274 266.147 359.597 266.076C359.923 266.002 360.251 265.944 360.58 265.901C361.011 265.845 361.36 265.804 361.628 265.776C361.899 265.745 362.096 265.694 362.219 265.624C362.345 265.553 362.408 265.43 362.408 265.254V265.217C362.408 264.762 362.284 264.408 362.034 264.156C361.788 263.903 361.414 263.777 360.913 263.777C360.393 263.777 359.985 263.891 359.689 264.119C359.394 264.346 359.186 264.589 359.066 264.848L358.032 264.479C358.217 264.048 358.463 263.712 358.771 263.472C359.081 263.229 359.42 263.06 359.786 262.964C360.156 262.866 360.519 262.817 360.876 262.817C361.103 262.817 361.365 262.844 361.661 262.9C361.959 262.952 362.247 263.061 362.524 263.228C362.804 263.394 363.036 263.645 363.221 263.98C363.406 264.316 363.498 264.765 363.498 265.328V270H362.408V269.04H362.353C362.279 269.194 362.156 269.358 361.984 269.534C361.811 269.709 361.582 269.858 361.296 269.982C361.01 270.105 360.66 270.166 360.248 270.166ZM360.414 269.188C360.845 269.188 361.208 269.103 361.504 268.934C361.802 268.764 362.027 268.546 362.178 268.278C362.331 268.01 362.408 267.729 362.408 267.433V266.436C362.362 266.491 362.261 266.542 362.104 266.588C361.95 266.632 361.771 266.67 361.568 266.704C361.368 266.735 361.173 266.762 360.982 266.787C360.794 266.808 360.642 266.827 360.525 266.842C360.242 266.879 359.977 266.939 359.731 267.022C359.488 267.102 359.291 267.224 359.14 267.387C358.992 267.547 358.918 267.766 358.918 268.043C358.918 268.421 359.058 268.707 359.338 268.901C359.622 269.092 359.98 269.188 360.414 269.188ZM364.522 263.925V262.909H370.283V263.925H367.956V270H366.867V263.925H364.522ZM374.477 270.148C373.794 270.148 373.204 269.997 372.709 269.695C372.216 269.391 371.836 268.966 371.569 268.421C371.304 267.873 371.172 267.236 371.172 266.51C371.172 265.784 371.304 265.143 371.569 264.589C371.836 264.032 372.209 263.598 372.686 263.288C373.166 262.974 373.726 262.817 374.366 262.817C374.736 262.817 375.1 262.878 375.46 263.001C375.82 263.125 376.148 263.325 376.444 263.602C376.739 263.875 376.975 264.239 377.15 264.691C377.325 265.143 377.413 265.701 377.413 266.362V266.824H371.947V265.882H376.305C376.305 265.482 376.225 265.125 376.065 264.811C375.908 264.497 375.683 264.249 375.391 264.068C375.102 263.886 374.76 263.795 374.366 263.795C373.932 263.795 373.557 263.903 373.24 264.119C372.926 264.331 372.684 264.608 372.515 264.95C372.346 265.291 372.261 265.657 372.261 266.048V266.676C372.261 267.212 372.353 267.666 372.538 268.038C372.726 268.407 372.986 268.689 373.318 268.883C373.651 269.074 374.037 269.169 374.477 269.169C374.763 269.169 375.022 269.129 375.253 269.049C375.486 268.966 375.688 268.843 375.857 268.68C376.027 268.513 376.157 268.307 376.25 268.061L377.302 268.357C377.191 268.714 377.005 269.027 376.744 269.298C376.482 269.566 376.159 269.775 375.774 269.926C375.39 270.074 374.957 270.148 374.477 270.148ZM378.443 270V268.984H378.701C378.913 268.984 379.09 268.943 379.232 268.86C379.374 268.774 379.487 268.624 379.574 268.412C379.663 268.196 379.731 267.898 379.777 267.516C379.826 267.132 379.861 266.642 379.883 266.048L380.012 262.909H384.739V270H383.65V263.925H381.046L380.935 266.455C380.911 267.036 380.859 267.549 380.778 267.992C380.702 268.432 380.583 268.801 380.423 269.1C380.266 269.398 380.057 269.623 379.795 269.774C379.534 269.925 379.206 270 378.812 270H378.443ZM391.004 270V263.906H389.12C388.696 263.906 388.362 264.005 388.119 264.202C387.876 264.399 387.754 264.67 387.754 265.014C387.754 265.353 387.863 265.619 388.082 265.813C388.303 266.007 388.607 266.104 388.991 266.104H391.281V267.119H388.991C388.511 267.119 388.097 267.035 387.749 266.865C387.402 266.696 387.134 266.455 386.946 266.141C386.758 265.824 386.665 265.448 386.665 265.014C386.665 264.577 386.763 264.202 386.96 263.888C387.157 263.574 387.439 263.332 387.805 263.163C388.174 262.994 388.613 262.909 389.12 262.909H392.038V270H391.004ZM386.277 270L388.29 266.473H389.471L387.459 270H386.277ZM398.784 268.393L402.2 262.909H403.456V270H402.366V264.516L398.969 270H397.694V262.909H398.784V268.393ZM404.823 270V268.984H405.082C405.294 268.984 405.471 268.943 405.613 268.86C405.754 268.774 405.868 268.624 405.954 268.412C406.044 268.196 406.111 267.898 406.158 267.516C406.207 267.132 406.242 266.642 406.264 266.048L406.393 262.909H411.12V270H410.031V263.925H407.427L407.316 266.455C407.292 267.036 407.239 267.549 407.159 267.992C407.082 268.432 406.964 268.801 406.804 269.1C406.647 269.398 406.438 269.623 406.176 269.774C405.914 269.925 405.587 270 405.193 270H404.823ZM414.209 268.393L417.625 262.909H418.881V270H417.791V264.516L414.393 270H413.119V262.909H414.209V268.393ZM427.505 270.148C426.822 270.148 426.233 269.997 425.737 269.695C425.245 269.391 424.865 268.966 424.597 268.421C424.332 267.873 424.2 267.236 424.2 266.51C424.2 265.784 424.332 265.143 424.597 264.589C424.865 264.032 425.237 263.598 425.714 263.288C426.194 262.974 426.754 262.817 427.395 262.817C427.764 262.817 428.129 262.878 428.489 263.001C428.849 263.125 429.176 263.325 429.472 263.602C429.767 263.875 430.003 264.239 430.178 264.691C430.354 265.143 430.441 265.701 430.441 266.362V266.824H424.975V265.882H429.333C429.333 265.482 429.253 265.125 429.093 264.811C428.936 264.497 428.712 264.249 428.419 264.068C428.13 263.886 427.788 263.795 427.395 263.795C426.961 263.795 426.585 263.903 426.268 264.119C425.954 264.331 425.713 264.608 425.543 264.95C425.374 265.291 425.289 265.657 425.289 266.048V266.676C425.289 267.212 425.382 267.666 425.566 268.038C425.754 268.407 426.014 268.689 426.347 268.883C426.679 269.074 427.065 269.169 427.505 269.169C427.792 269.169 428.05 269.129 428.281 269.049C428.515 268.966 428.716 268.843 428.886 268.68C429.055 268.513 429.186 268.307 429.278 268.061L430.331 268.357C430.22 268.714 430.034 269.027 429.772 269.298C429.51 269.566 429.187 269.775 428.803 269.926C428.418 270.074 427.985 270.148 427.505 270.148ZM436.161 265.439V266.455H432.025V265.439H436.161ZM438.078 270V262.909H439.131V264.017H439.223C439.371 263.638 439.609 263.345 439.939 263.135C440.268 262.923 440.663 262.817 441.125 262.817C441.593 262.817 441.982 262.923 442.293 263.135C442.607 263.345 442.852 263.638 443.027 264.017H443.101C443.283 263.651 443.555 263.36 443.918 263.145C444.281 262.926 444.717 262.817 445.225 262.817C445.859 262.817 446.377 263.015 446.78 263.412C447.183 263.806 447.385 264.42 447.385 265.254V270H446.296V265.254C446.296 264.731 446.152 264.357 445.866 264.132C445.58 263.908 445.243 263.795 444.855 263.795C444.357 263.795 443.97 263.946 443.696 264.248C443.423 264.546 443.286 264.925 443.286 265.384V270H442.178V265.143C442.178 264.74 442.047 264.416 441.785 264.169C441.524 263.92 441.187 263.795 440.774 263.795C440.491 263.795 440.226 263.871 439.98 264.022C439.737 264.172 439.54 264.382 439.389 264.65C439.242 264.914 439.168 265.22 439.168 265.568V270H438.078ZM451.464 270.166C451.014 270.166 450.607 270.082 450.24 269.912C449.874 269.74 449.583 269.492 449.368 269.169C449.152 268.843 449.045 268.449 449.045 267.987C449.045 267.581 449.125 267.252 449.285 266.999C449.445 266.744 449.659 266.544 449.926 266.399C450.194 266.254 450.49 266.147 450.813 266.076C451.139 266.002 451.467 265.944 451.796 265.901C452.227 265.845 452.576 265.804 452.844 265.776C453.115 265.745 453.312 265.694 453.435 265.624C453.561 265.553 453.624 265.43 453.624 265.254V265.217C453.624 264.762 453.5 264.408 453.25 264.156C453.004 263.903 452.63 263.777 452.128 263.777C451.608 263.777 451.201 263.891 450.905 264.119C450.61 264.346 450.402 264.589 450.282 264.848L449.248 264.479C449.432 264.048 449.679 263.712 449.986 263.472C450.297 263.229 450.636 263.06 451.002 262.964C451.371 262.866 451.735 262.817 452.092 262.817C452.319 262.817 452.581 262.844 452.876 262.9C453.175 262.952 453.463 263.061 453.74 263.228C454.02 263.394 454.252 263.645 454.437 263.98C454.621 264.316 454.714 264.765 454.714 265.328V270H453.624V269.04H453.569C453.495 269.194 453.372 269.358 453.199 269.534C453.027 269.709 452.798 269.858 452.512 269.982C452.225 270.105 451.876 270.166 451.464 270.166ZM451.63 269.188C452.061 269.188 452.424 269.103 452.719 268.934C453.018 268.764 453.243 268.546 453.393 268.278C453.547 268.01 453.624 267.729 453.624 267.433V266.436C453.578 266.491 453.476 266.542 453.32 266.588C453.166 266.632 452.987 266.67 452.784 266.704C452.584 266.735 452.389 266.762 452.198 266.787C452.01 266.808 451.858 266.827 451.741 266.842C451.458 266.879 451.193 266.939 450.947 267.022C450.704 267.102 450.507 267.224 450.356 267.387C450.208 267.547 450.134 267.766 450.134 268.043C450.134 268.421 450.274 268.707 450.554 268.901C450.837 269.092 451.196 269.188 451.63 269.188ZM456.702 270V262.909H457.792V270H456.702ZM457.256 261.727C457.044 261.727 456.861 261.655 456.707 261.51C456.556 261.366 456.481 261.192 456.481 260.989C456.481 260.786 456.556 260.612 456.707 260.467C456.861 260.322 457.044 260.25 457.256 260.25C457.469 260.25 457.65 260.322 457.801 260.467C457.955 260.612 458.032 260.786 458.032 260.989C458.032 261.192 457.955 261.366 457.801 261.51C457.65 261.655 457.469 261.727 457.256 261.727ZM460.877 260.545V270H459.787V260.545H460.877Z" fill="white"/>
<rect x="265" y="283" width="370" height="40" rx="10" fill="white"/>
<path d="M283.217 353.545V363H282.072V354.561H277.308V363H276.163V353.545H283.217ZM287.466 363.166C287.016 363.166 286.609 363.082 286.242 362.912C285.876 362.74 285.585 362.492 285.37 362.169C285.154 361.843 285.047 361.449 285.047 360.987C285.047 360.581 285.127 360.252 285.287 359.999C285.447 359.744 285.661 359.544 285.928 359.399C286.196 359.254 286.492 359.147 286.815 359.076C287.141 359.002 287.469 358.944 287.798 358.901C288.229 358.845 288.578 358.804 288.846 358.776C289.117 358.745 289.314 358.694 289.437 358.624C289.563 358.553 289.626 358.43 289.626 358.254V358.217C289.626 357.762 289.502 357.408 289.252 357.156C289.006 356.903 288.632 356.777 288.13 356.777C287.61 356.777 287.203 356.891 286.907 357.119C286.612 357.346 286.404 357.589 286.284 357.848L285.25 357.479C285.434 357.048 285.681 356.712 285.988 356.472C286.299 356.229 286.638 356.06 287.004 355.964C287.373 355.866 287.736 355.817 288.093 355.817C288.321 355.817 288.583 355.844 288.878 355.9C289.177 355.952 289.465 356.061 289.742 356.228C290.022 356.394 290.254 356.645 290.439 356.98C290.623 357.316 290.716 357.765 290.716 358.328V363H289.626V362.04H289.571C289.497 362.194 289.374 362.358 289.201 362.534C289.029 362.709 288.8 362.858 288.514 362.982C288.227 363.105 287.878 363.166 287.466 363.166ZM287.632 362.188C288.063 362.188 288.426 362.103 288.721 361.934C289.02 361.764 289.245 361.546 289.395 361.278C289.549 361.01 289.626 360.729 289.626 360.433V359.436C289.58 359.491 289.478 359.542 289.321 359.588C289.168 359.632 288.989 359.67 288.786 359.704C288.586 359.735 288.39 359.762 288.2 359.787C288.012 359.808 287.86 359.827 287.743 359.842C287.459 359.879 287.195 359.939 286.949 360.022C286.705 360.102 286.508 360.224 286.358 360.387C286.21 360.547 286.136 360.766 286.136 361.043C286.136 361.421 286.276 361.707 286.556 361.901C286.839 362.092 287.198 362.188 287.632 362.188ZM292.704 365.659V355.909H293.757V357.036H293.886C293.966 356.912 294.077 356.755 294.218 356.565C294.363 356.371 294.569 356.198 294.837 356.048C295.108 355.894 295.474 355.817 295.936 355.817C296.533 355.817 297.059 355.966 297.515 356.265C297.97 356.563 298.326 356.986 298.581 357.534C298.836 358.082 298.964 358.728 298.964 359.473C298.964 360.224 298.836 360.875 298.581 361.426C298.326 361.974 297.972 362.398 297.519 362.7C297.067 362.998 296.545 363.148 295.954 363.148C295.499 363.148 295.134 363.072 294.86 362.922C294.586 362.768 294.375 362.594 294.228 362.4C294.08 362.203 293.966 362.04 293.886 361.911H293.794V365.659H292.704ZM293.775 359.455C293.775 359.99 293.854 360.462 294.011 360.872C294.168 361.278 294.397 361.597 294.699 361.827C295 362.055 295.369 362.169 295.806 362.169C296.262 362.169 296.642 362.049 296.947 361.809C297.254 361.566 297.485 361.24 297.639 360.83C297.796 360.418 297.875 359.959 297.875 359.455C297.875 358.956 297.798 358.507 297.644 358.107C297.493 357.703 297.264 357.385 296.956 357.151C296.651 356.914 296.268 356.795 295.806 356.795C295.363 356.795 294.991 356.908 294.689 357.132C294.388 357.354 294.16 357.665 294.006 358.065C293.852 358.462 293.775 358.925 293.775 359.455ZM303.507 363.148C302.867 363.148 302.305 362.995 301.822 362.691C301.342 362.386 300.966 361.96 300.695 361.412C300.428 360.864 300.294 360.224 300.294 359.491C300.294 358.753 300.428 358.108 300.695 357.557C300.966 357.006 301.342 356.578 301.822 356.274C302.305 355.969 302.867 355.817 303.507 355.817C304.147 355.817 304.707 355.969 305.187 356.274C305.67 356.578 306.046 357.006 306.314 357.557C306.584 358.108 306.72 358.753 306.72 359.491C306.72 360.224 306.584 360.864 306.314 361.412C306.046 361.96 305.67 362.386 305.187 362.691C304.707 362.995 304.147 363.148 303.507 363.148ZM303.507 362.169C303.993 362.169 304.393 362.044 304.707 361.795C305.021 361.546 305.253 361.218 305.404 360.812C305.555 360.406 305.63 359.965 305.63 359.491C305.63 359.018 305.555 358.576 305.404 358.167C305.253 357.757 305.021 357.426 304.707 357.174C304.393 356.922 303.993 356.795 303.507 356.795C303.02 356.795 302.62 356.922 302.306 357.174C301.993 357.426 301.76 357.757 301.609 358.167C301.459 358.576 301.383 359.018 301.383 359.491C301.383 359.965 301.459 360.406 301.609 360.812C301.76 361.218 301.993 361.546 302.306 361.795C302.62 362.044 303.02 362.169 303.507 362.169ZM307.755 363V361.984H308.014C308.226 361.984 308.403 361.943 308.544 361.86C308.686 361.774 308.8 361.624 308.886 361.412C308.975 361.196 309.043 360.898 309.089 360.516C309.138 360.132 309.174 359.642 309.195 359.048L309.325 355.909H314.052V363H312.962V356.925H310.359L310.248 359.455C310.223 360.036 310.171 360.549 310.091 360.992C310.014 361.432 309.896 361.801 309.736 362.1C309.579 362.398 309.369 362.623 309.108 362.774C308.846 362.925 308.518 363 308.124 363H307.755ZM316.993 358.476H319.024C319.855 358.476 320.49 358.687 320.93 359.108C321.371 359.53 321.591 360.064 321.591 360.71C321.591 361.135 321.492 361.521 321.295 361.869C321.098 362.214 320.809 362.489 320.427 362.695C320.046 362.898 319.578 363 319.024 363H316.051V355.909H317.14V361.984H319.024C319.455 361.984 319.809 361.871 320.086 361.643C320.363 361.415 320.501 361.123 320.501 360.766C320.501 360.39 320.363 360.084 320.086 359.847C319.809 359.61 319.455 359.491 319.024 359.491H316.993V358.476Z" fill="white"/>
<rect x="265" y="376" width="370" height="40" rx="10" fill="white"/>
<g clip-path="url(#clip2_1_5)">
<g clip-path="url(#clip3_1_5)">
<rect width="400" height="50" transform="translate(250 450)" fill="#E1632D"/>
<path d="M426.785 481V469.364H431.444C432.3 469.364 433.014 469.491 433.586 469.744C434.158 469.998 434.588 470.35 434.876 470.801C435.164 471.248 435.308 471.763 435.308 472.347C435.308 472.801 435.217 473.201 435.035 473.545C434.853 473.886 434.603 474.167 434.285 474.386C433.97 474.602 433.611 474.756 433.205 474.847V474.96C433.648 474.979 434.063 475.104 434.45 475.335C434.84 475.566 435.156 475.89 435.398 476.307C435.641 476.72 435.762 477.212 435.762 477.784C435.762 478.402 435.609 478.953 435.302 479.438C434.999 479.919 434.55 480.299 433.955 480.58C433.361 480.86 432.628 481 431.756 481H426.785ZM429.245 478.989H431.251C431.936 478.989 432.436 478.858 432.751 478.597C433.065 478.331 433.222 477.979 433.222 477.54C433.222 477.218 433.145 476.934 432.989 476.688C432.834 476.441 432.612 476.248 432.325 476.108C432.04 475.968 431.701 475.898 431.308 475.898H429.245V478.989ZM429.245 474.233H431.069C431.406 474.233 431.705 474.174 431.967 474.057C432.232 473.936 432.44 473.765 432.592 473.545C432.747 473.326 432.825 473.062 432.825 472.756C432.825 472.335 432.675 471.996 432.376 471.739C432.08 471.481 431.66 471.352 431.114 471.352H429.245V474.233ZM441.261 481.17C440.378 481.17 439.615 480.983 438.971 480.608C438.331 480.229 437.836 479.703 437.488 479.028C437.139 478.35 436.965 477.564 436.965 476.67C436.965 475.769 437.139 474.981 437.488 474.307C437.836 473.629 438.331 473.102 438.971 472.727C439.615 472.348 440.378 472.159 441.261 472.159C442.143 472.159 442.905 472.348 443.545 472.727C444.189 473.102 444.685 473.629 445.033 474.307C445.382 474.981 445.556 475.769 445.556 476.67C445.556 477.564 445.382 478.35 445.033 479.028C444.685 479.703 444.189 480.229 443.545 480.608C442.905 480.983 442.143 481.17 441.261 481.17ZM441.272 479.295C441.674 479.295 442.009 479.182 442.278 478.955C442.547 478.723 442.749 478.409 442.886 478.011C443.026 477.614 443.096 477.161 443.096 476.653C443.096 476.146 443.026 475.693 442.886 475.295C442.749 474.898 442.547 474.583 442.278 474.352C442.009 474.121 441.674 474.006 441.272 474.006C440.867 474.006 440.526 474.121 440.249 474.352C439.977 474.583 439.77 474.898 439.63 475.295C439.494 475.693 439.425 476.146 439.425 476.653C439.425 477.161 439.494 477.614 439.63 478.011C439.77 478.409 439.977 478.723 440.249 478.955C440.526 479.182 440.867 479.295 441.272 479.295ZM449.442 477.807L452.585 472.273H454.971V481H452.664V475.449L449.533 481H447.13V472.273H449.442V477.807ZM452.17 469.227H453.857C453.853 469.917 453.598 470.472 453.09 470.892C452.586 471.312 451.905 471.523 451.045 471.523C450.181 471.523 449.497 471.312 448.994 470.892C448.49 470.472 448.238 469.917 448.238 469.227H449.914C449.91 469.489 449.994 469.723 450.164 469.932C450.338 470.14 450.632 470.244 451.045 470.244C451.446 470.244 451.734 470.142 451.908 469.938C452.083 469.733 452.17 469.496 452.17 469.227ZM456.035 474.176V472.273H463.944V474.176H461.131V481H458.825V474.176H456.035ZM467.724 477.807L470.866 472.273H473.252V481H470.945V475.449L467.815 481H465.411V472.273H467.724V477.807Z" fill="white"/>
</g>
</g>
</g>
<path d="M373.63 623.414C373.63 622.135 374.078 621.048 374.974 620.152C375.87 619.256 376.953 618.808 378.222 618.808C379.491 618.808 380.565 619.256 381.442 620.152C382.319 621.039 382.758 622.117 382.758 623.386C382.758 624.646 382.305 625.724 381.4 626.62C380.504 627.516 379.426 627.964 378.166 627.964C376.906 627.964 375.833 627.525 374.946 626.648C374.069 625.771 373.63 624.693 373.63 623.414ZM381.834 623.4C381.834 622.271 381.498 621.375 380.826 620.712C380.163 620.04 379.281 619.704 378.18 619.704C377.088 619.704 376.206 620.04 375.534 620.712C374.871 621.375 374.54 622.261 374.54 623.372C374.54 624.483 374.876 625.379 375.548 626.06C376.22 626.741 377.116 627.082 378.236 627.082C379.365 627.082 380.247 626.751 380.882 626.088C381.517 625.416 381.834 624.52 381.834 623.4ZM378.334 621.328C377.737 621.328 377.312 621.505 377.06 621.86C376.808 622.215 376.682 622.705 376.682 623.33C376.682 623.946 376.831 624.45 377.13 624.842C377.438 625.234 377.867 625.43 378.418 625.43C379.155 625.43 379.673 625.057 379.972 624.31L380.462 624.422C380.462 624.478 380.401 624.697 380.28 625.08C380.159 625.453 380.079 625.635 380.042 625.626C379.538 625.906 378.903 626.046 378.138 626.046C377.382 626.046 376.738 625.813 376.206 625.346C375.683 624.879 375.422 624.24 375.422 623.428C375.422 622.607 375.697 621.953 376.248 621.468C376.799 620.973 377.503 620.726 378.362 620.726C378.754 620.726 379.123 620.768 379.468 620.852C379.823 620.936 380.07 620.987 380.21 621.006C380.266 621.109 380.294 621.314 380.294 621.622C380.294 621.921 380.28 622.21 380.252 622.49L379.734 622.448C379.697 622.159 379.627 621.939 379.524 621.79C379.328 621.482 378.931 621.328 378.334 621.328ZM390.59 619.004C391.692 619.004 392.588 619.233 393.278 619.69C393.978 620.147 394.328 620.833 394.328 621.748C394.328 622.243 394.226 622.681 394.02 623.064C393.815 623.437 393.535 623.731 393.18 623.946C392.49 624.375 391.678 624.59 390.744 624.59C390.483 624.59 390.245 624.567 390.03 624.52C389.928 624.436 389.876 624.305 389.876 624.128C389.876 623.951 389.914 623.82 389.988 623.736C390.138 623.764 390.334 623.778 390.576 623.778C391.136 623.778 391.589 623.596 391.934 623.232C392.28 622.859 392.452 622.341 392.452 621.678C392.452 620.502 391.766 619.914 390.394 619.914C389.881 619.914 389.624 619.947 389.624 620.012V627.782C389.624 627.959 389.708 628.09 389.876 628.174C390.054 628.249 390.422 628.286 390.982 628.286L391.164 629.042C390.044 629.014 389.209 629 388.658 629C388.108 629 387.473 629.014 386.754 629.042L386.586 628.286C387.034 628.277 387.328 628.23 387.468 628.146C387.618 628.062 387.692 627.941 387.692 627.782V620.278C387.692 620.11 387.627 619.984 387.496 619.9C387.375 619.816 387.128 619.774 386.754 619.774L386.572 619.018C387.804 619.046 388.458 619.06 388.532 619.06C389.718 619.023 390.404 619.004 390.59 619.004ZM397.683 618.682V627.936C397.683 628.085 397.735 628.197 397.837 628.272C397.949 628.337 398.173 628.37 398.509 628.37L398.663 629.042C397.683 629.014 397.002 629 396.619 629C396.237 629 395.733 629.014 395.107 629.042L394.967 628.37C395.35 628.361 395.607 628.323 395.737 628.258C395.877 628.183 395.947 628.076 395.947 627.936V620.334C395.947 619.989 395.891 619.769 395.779 619.676C395.667 619.583 395.537 619.536 395.387 619.536C395.247 619.536 395.131 619.541 395.037 619.55L394.855 619.018C395.845 618.766 396.647 618.519 397.263 618.276C397.441 618.276 397.553 618.313 397.599 618.388C397.655 618.453 397.683 618.551 397.683 618.682ZM402.614 626.438C402.026 626.559 401.625 626.704 401.41 626.872C401.195 627.031 401.088 627.222 401.088 627.446C401.088 627.661 401.163 627.833 401.312 627.964C401.471 628.095 401.676 628.16 401.928 628.16C402.18 628.16 402.418 628.057 402.642 627.852L402.614 626.438ZM405.232 628.034L405.344 628.608C405.185 628.673 404.854 628.785 404.35 628.944C403.855 629.093 403.547 629.168 403.426 629.168C403.305 629.168 403.216 629.154 403.16 629.126C403.104 629.098 403.053 629.047 403.006 628.972C402.959 628.897 402.927 628.841 402.908 628.804C402.889 628.757 402.861 628.678 402.824 628.566C402.787 628.445 402.763 628.37 402.754 628.342C402.25 628.893 401.676 629.168 401.032 629.168C400.612 629.168 400.257 629.037 399.968 628.776C399.679 628.505 399.534 628.174 399.534 627.782C399.534 627.25 399.744 626.858 400.164 626.606C400.593 626.345 401.396 626.088 402.572 625.836V625.332C402.572 624.791 402.511 624.389 402.39 624.128C402.269 623.857 402.054 623.722 401.746 623.722C401.447 623.722 401.214 623.769 401.046 623.862V624.758C401.046 624.814 400.897 624.87 400.598 624.926C400.299 624.982 400.08 625.01 399.94 625.01C399.8 625.01 399.73 624.842 399.73 624.506C399.73 624.347 399.758 624.179 399.814 624.002C399.87 623.825 399.931 623.699 399.996 623.624C400.164 623.437 400.523 623.241 401.074 623.036C401.634 622.831 402.059 622.728 402.348 622.728C402.955 622.728 403.426 622.915 403.762 623.288C404.107 623.661 404.28 624.212 404.28 624.94V627.782C404.28 627.959 404.355 628.048 404.504 628.048L404.882 628.034H405.232ZM408.116 628.3C408.863 628.3 409.236 628.057 409.236 627.572C409.236 627.255 408.854 626.951 408.088 626.662C407.771 626.541 407.454 626.401 407.136 626.242C406.828 626.083 406.562 625.859 406.338 625.57C406.114 625.281 406.002 624.94 406.002 624.548C406.002 623.988 406.231 623.545 406.688 623.218C407.155 622.891 407.687 622.728 408.284 622.728C408.882 622.728 409.53 622.859 410.23 623.12C410.352 623.232 410.412 623.465 410.412 623.82C410.412 624.165 410.375 624.506 410.3 624.842L409.684 624.786C409.628 624.422 409.484 624.128 409.25 623.904C409.017 623.68 408.737 623.568 408.41 623.568C408.093 623.568 407.85 623.638 407.682 623.778C407.524 623.909 407.444 624.063 407.444 624.24C407.444 624.417 407.556 624.576 407.78 624.716C408.004 624.856 408.275 624.987 408.592 625.108C408.919 625.229 409.241 625.369 409.558 625.528C409.885 625.687 410.16 625.911 410.384 626.2C410.608 626.489 410.72 626.83 410.72 627.222C410.72 627.819 410.492 628.291 410.034 628.636C409.577 628.981 408.994 629.154 408.284 629.154C407.584 629.154 406.898 629.047 406.226 628.832C406.17 628.785 406.114 628.533 406.058 628.076C406.002 627.609 405.974 627.25 405.974 626.998V626.788L406.786 626.83C406.852 627.343 407.006 627.717 407.248 627.95C407.491 628.183 407.78 628.3 408.116 628.3ZM413.985 626.97C413.985 627.343 414.055 627.637 414.195 627.852C414.344 628.067 414.536 628.174 414.769 628.174C415.002 628.174 415.278 628.053 415.595 627.81C415.67 627.754 415.726 627.749 415.763 627.796L416.043 628.174C415.8 628.407 415.609 628.58 415.469 628.692C415.068 629 414.592 629.154 414.041 629.154C413.49 629.154 413.047 628.972 412.711 628.608C412.384 628.235 412.221 627.819 412.221 627.362V623.862H411.521L411.451 623.344C411.964 623.176 412.352 622.952 412.613 622.672C412.884 622.383 413.136 622.005 413.369 621.538H413.705C413.798 621.538 413.859 621.557 413.887 621.594C413.915 621.631 413.929 621.697 413.929 621.79L413.985 622.98H415.763C415.782 623.064 415.791 623.181 415.791 623.33C415.791 623.479 415.73 623.657 415.609 623.862H413.999L413.985 626.97ZM420.528 622.938L421.774 622.98C422.147 622.98 422.558 622.952 423.006 622.896V627.418C423.006 627.745 423.034 627.931 423.09 627.978C423.155 628.025 423.239 628.048 423.342 628.048H423.552L423.846 628.034L423.972 628.762C423.309 628.799 422.572 628.935 421.76 629.168C421.582 629.168 421.494 629.117 421.494 629.014L421.41 628.384C420.626 628.907 419.986 629.168 419.492 629.168C418.026 629.168 417.294 628.445 417.294 626.998L417.308 624.044C417.308 623.96 417.298 623.895 417.28 623.848C417.27 623.792 417.219 623.741 417.126 623.694C417.032 623.638 416.897 623.61 416.72 623.61L416.566 622.938L417.812 622.98C418.185 622.98 418.596 622.952 419.044 622.896V626.55C419.044 627.455 419.408 627.908 420.136 627.908C420.584 627.908 420.962 627.777 421.27 627.516V624.044C421.27 623.96 421.26 623.895 421.242 623.848C421.232 623.792 421.181 623.741 421.088 623.694C420.994 623.638 420.859 623.61 420.682 623.61L420.528 622.938ZM427.1 622.98C427.109 623.045 427.114 623.101 427.114 623.148C427.114 623.195 427.118 623.265 427.128 623.358C427.137 623.451 427.142 623.521 427.142 623.568C427.851 623.195 428.369 622.961 428.696 622.868C429.022 622.775 429.302 622.728 429.536 622.728C430.077 622.728 430.516 622.924 430.852 623.316C431.188 623.708 431.356 624.277 431.356 625.024V627.936C431.356 628.02 431.36 628.09 431.37 628.146C431.388 628.193 431.444 628.244 431.538 628.3C431.631 628.347 431.766 628.37 431.944 628.37L432.097 629.042C431.118 629.014 430.502 629 430.25 629C429.998 629 429.559 629.014 428.934 629.042L428.794 628.37C429.111 628.361 429.326 628.323 429.438 628.258C429.55 628.183 429.61 628.076 429.62 627.936V625.444C429.62 624.949 429.536 624.585 429.368 624.352C429.209 624.109 428.934 623.988 428.542 623.988C428.159 623.988 427.716 624.095 427.212 624.31V627.936C427.212 628.02 427.216 628.09 427.226 628.146C427.244 628.193 427.3 628.244 427.394 628.3C427.487 628.347 427.622 628.37 427.8 628.37L427.954 629.042C426.974 629.014 426.358 629 426.106 629C425.854 629 425.415 629.014 424.79 629.042L424.649 628.37C424.967 628.361 425.182 628.323 425.294 628.258C425.406 628.183 425.466 628.076 425.476 627.936V624.576C425.476 624.352 425.424 624.198 425.322 624.114C425.219 624.021 425.088 623.974 424.93 623.974C424.78 623.974 424.668 623.979 424.594 623.988L424.398 623.414C424.976 623.274 425.76 623.008 426.75 622.616C426.871 622.616 426.946 622.644 426.974 622.7C427.011 622.747 427.039 622.789 427.058 622.826C427.076 622.863 427.09 622.915 427.1 622.98ZM440.053 629.042L437.533 628.972C437.039 628.972 436.432 628.986 435.713 629.014L435.545 628.258C435.993 628.249 436.287 628.202 436.427 628.118C436.577 628.034 436.651 627.913 436.651 627.754V620.292C436.651 620.124 436.586 619.998 436.455 619.914C436.334 619.83 436.087 619.788 435.713 619.788L435.531 619.032C436.651 619.06 437.305 619.074 437.491 619.074L440.291 619.046C442.139 619.046 443.586 619.466 444.631 620.306C445.677 621.137 446.199 622.336 446.199 623.904C446.199 625.463 445.663 626.709 444.589 627.642C443.525 628.575 442.013 629.042 440.053 629.042ZM440.431 628.16C441.598 628.16 442.489 627.81 443.105 627.11C443.721 626.41 444.029 625.397 444.029 624.072C444.029 622.737 443.675 621.706 442.965 620.978C442.265 620.241 441.262 619.872 439.955 619.872H438.905C438.663 619.872 438.541 619.905 438.541 619.97V627.236C438.541 627.479 438.565 627.651 438.611 627.754C438.658 627.857 438.821 627.95 439.101 628.034C439.381 628.118 439.825 628.16 440.431 628.16ZM452.108 622.728C452.416 622.728 452.714 622.817 453.004 622.994C453.302 623.171 453.484 623.349 453.55 623.526C453.634 623.489 453.769 623.423 453.956 623.33C454.152 623.227 454.306 623.153 454.418 623.106C454.53 623.05 454.67 622.989 454.838 622.924C455.136 622.793 455.449 622.728 455.776 622.728C456.364 622.728 456.826 622.919 457.162 623.302C457.507 623.675 457.68 624.226 457.68 624.954V627.936C457.68 628.02 457.684 628.09 457.694 628.146C457.712 628.193 457.768 628.244 457.862 628.3C457.955 628.347 458.09 628.37 458.268 628.37L458.422 629.042C457.442 629.014 456.826 629 456.574 629C456.322 629 455.883 629.014 455.258 629.042L455.118 628.37C455.435 628.361 455.65 628.323 455.762 628.258C455.874 628.183 455.934 628.076 455.944 627.936V625.416C455.944 624.903 455.855 624.539 455.678 624.324C455.5 624.1 455.225 623.988 454.852 623.988C454.478 623.988 454.105 624.072 453.732 624.24C453.76 624.408 453.774 624.646 453.774 624.954L453.746 627.936C453.746 628.02 453.75 628.09 453.76 628.146C453.778 628.193 453.834 628.244 453.928 628.3C454.021 628.347 454.156 628.37 454.334 628.37L454.488 629.042C453.508 629.014 452.892 629 452.64 629C452.388 629 451.949 629.014 451.324 629.042L451.184 628.37C451.501 628.361 451.716 628.323 451.828 628.258C451.94 628.183 452 628.076 452.01 627.936V625.416C452.01 624.735 451.865 624.305 451.576 624.128C451.426 624.035 451.216 623.988 450.946 623.988C450.675 623.988 450.288 624.095 449.784 624.31V627.936C449.784 628.02 449.788 628.09 449.798 628.146C449.816 628.193 449.872 628.244 449.966 628.3C450.059 628.347 450.194 628.37 450.372 628.37L450.526 629.042C449.546 629.014 448.93 629 448.678 629C448.426 629 447.987 629.014 447.362 629.042L447.222 628.37C447.539 628.361 447.754 628.323 447.866 628.258C447.978 628.183 448.038 628.076 448.048 627.936V624.576C448.048 624.352 447.996 624.198 447.894 624.114C447.791 624.021 447.66 623.974 447.502 623.974C447.352 623.974 447.24 623.979 447.166 623.988L446.97 623.414C447.548 623.274 448.332 623.008 449.322 622.616C449.443 622.616 449.518 622.644 449.546 622.7C449.583 622.747 449.611 622.789 449.63 622.826C449.648 622.863 449.662 622.915 449.672 622.98C449.681 623.045 449.686 623.101 449.686 623.148C449.686 623.195 449.69 623.265 449.7 623.358C449.709 623.451 449.714 623.521 449.714 623.568C449.732 623.559 449.807 623.521 449.938 623.456C450.078 623.381 450.194 623.321 450.288 623.274C450.39 623.227 450.526 623.167 450.694 623.092C450.862 623.017 451.011 622.957 451.142 622.91C451.478 622.789 451.8 622.728 452.108 622.728ZM461.93 622.938V627.936C461.93 628.085 461.982 628.197 462.084 628.272C462.196 628.337 462.42 628.37 462.756 628.37L462.91 629.042C461.93 629.014 461.249 629 460.866 629C460.493 629 459.994 629.014 459.368 629.042L459.228 628.37C459.611 628.361 459.868 628.323 459.998 628.258C460.129 628.183 460.194 628.076 460.194 627.936V624.576C460.194 624.361 460.138 624.198 460.026 624.086C459.914 623.965 459.69 623.904 459.354 623.904H459.172L458.976 623.33C459.816 623.134 460.647 622.896 461.468 622.616C461.664 622.616 461.79 622.639 461.846 622.686C461.902 622.723 461.93 622.807 461.93 622.938ZM461.034 621.286C460.782 621.286 460.563 621.202 460.376 621.034C460.19 620.866 460.096 620.651 460.096 620.39C460.096 620.129 460.194 619.9 460.39 619.704C460.596 619.508 460.824 619.41 461.076 619.41C461.328 619.41 461.548 619.494 461.734 619.662C461.921 619.83 462.014 620.045 462.014 620.306C462.014 620.567 461.912 620.796 461.706 620.992C461.51 621.188 461.286 621.286 461.034 621.286ZM465.897 626.97C465.897 627.343 465.967 627.637 466.107 627.852C466.256 628.067 466.448 628.174 466.681 628.174C466.914 628.174 467.19 628.053 467.507 627.81C467.582 627.754 467.638 627.749 467.675 627.796L467.955 628.174C467.712 628.407 467.521 628.58 467.381 628.692C466.98 629 466.504 629.154 465.953 629.154C465.402 629.154 464.959 628.972 464.623 628.608C464.296 628.235 464.133 627.819 464.133 627.362V623.862H463.433L463.363 623.344C463.876 623.176 464.264 622.952 464.525 622.672C464.796 622.383 465.048 622.005 465.281 621.538H465.617C465.71 621.538 465.771 621.557 465.799 621.594C465.827 621.631 465.841 621.697 465.841 621.79L465.897 622.98H467.675C467.694 623.064 467.703 623.181 467.703 623.33C467.703 623.479 467.642 623.657 467.521 623.862H465.911L465.897 626.97ZM472.636 622.728C473.205 622.728 473.593 622.868 473.798 623.148C473.798 623.269 473.737 623.437 473.616 623.652C473.504 623.867 473.387 624.053 473.266 624.212C473.145 624.371 473.07 624.45 473.042 624.45L471.866 624.016H471.81C471.633 624.035 471.483 624.147 471.362 624.352C471.25 624.548 471.194 624.8 471.194 625.108V627.936C471.194 628.085 471.264 628.197 471.404 628.272C471.544 628.337 471.843 628.37 472.3 628.37L472.454 629.042C471.474 629.014 470.746 629 470.27 629C469.803 629 469.257 629.014 468.632 629.042L468.492 628.37C468.875 628.361 469.131 628.323 469.262 628.258C469.393 628.183 469.458 628.076 469.458 627.936V624.576C469.458 624.352 469.407 624.198 469.304 624.114C469.201 624.021 469.071 623.974 468.912 623.974C468.763 623.974 468.651 623.979 468.576 623.988L468.38 623.414C468.959 623.274 469.743 623.008 470.732 622.616C470.881 622.616 470.961 622.672 470.97 622.784C470.989 622.896 471.003 623.059 471.012 623.274C471.031 623.489 471.045 623.633 471.054 623.708C471.185 623.512 471.409 623.302 471.726 623.078C472.043 622.845 472.347 622.728 472.636 622.728ZM477.12 622.938V627.936C477.12 628.085 477.171 628.197 477.274 628.272C477.386 628.337 477.61 628.37 477.946 628.37L478.1 629.042C477.12 629.014 476.438 629 476.056 629C475.682 629 475.183 629.014 474.558 629.042L474.418 628.37C474.8 628.361 475.057 628.323 475.188 628.258C475.318 628.183 475.384 628.076 475.384 627.936V624.576C475.384 624.361 475.328 624.198 475.216 624.086C475.104 623.965 474.88 623.904 474.544 623.904H474.362L474.166 623.33C475.006 623.134 475.836 622.896 476.658 622.616C476.854 622.616 476.98 622.639 477.036 622.686C477.092 622.723 477.12 622.807 477.12 622.938ZM476.224 621.286C475.972 621.286 475.752 621.202 475.566 621.034C475.379 620.866 475.286 620.651 475.286 620.39C475.286 620.129 475.384 619.9 475.58 619.704C475.785 619.508 476.014 619.41 476.266 619.41C476.518 619.41 476.737 619.494 476.924 619.662C477.11 619.83 477.204 620.045 477.204 620.306C477.204 620.567 477.101 620.796 476.896 620.992C476.7 621.188 476.476 621.286 476.224 621.286ZM482.64 622.938L483.942 622.98C484.129 622.98 484.54 622.966 485.174 622.938L485.314 623.61C485.09 623.619 484.918 623.652 484.796 623.708C484.675 623.764 484.577 623.876 484.502 624.044C482.43 628.832 481.38 631.249 481.352 631.296C481.334 631.352 481.25 631.497 481.1 631.73C480.96 631.973 480.83 632.145 480.708 632.248C480.596 632.36 480.433 632.467 480.218 632.57C480.013 632.682 479.761 632.738 479.462 632.738C479.173 632.738 478.907 632.635 478.664 632.43C478.664 632.281 478.725 632.061 478.846 631.772C478.977 631.492 479.075 631.352 479.14 631.352C479.327 631.399 479.565 631.422 479.854 631.422C480.088 631.422 480.354 631.137 480.652 630.568C480.96 629.999 481.217 629.425 481.422 628.846L479.294 624.226C479.108 623.815 478.786 623.61 478.328 623.61L478.174 622.938C479.154 622.966 479.808 622.98 480.134 622.98C480.47 622.98 480.956 622.966 481.59 622.938L481.73 623.61C481.394 623.619 481.175 623.661 481.072 623.736C480.979 623.801 480.96 623.909 481.016 624.058L482.178 627.082L483.354 624.044C483.41 623.904 483.396 623.797 483.312 623.722C483.238 623.647 483.065 623.61 482.794 623.61L482.64 622.938ZM485.692 628.986C485.562 628.865 485.496 628.529 485.496 627.978C485.496 627.782 485.52 627.67 485.566 627.642C485.772 627.446 486.061 627.348 486.434 627.348C486.817 627.348 487.13 627.479 487.372 627.74C487.615 628.001 487.736 628.347 487.736 628.776C487.736 629.196 487.582 629.686 487.274 630.246C486.976 630.815 486.542 631.301 485.972 631.702C485.954 631.702 485.916 631.702 485.86 631.702C485.804 631.702 485.706 631.674 485.566 631.618C485.426 631.562 485.328 631.497 485.272 631.422C485.786 630.946 486.098 630.615 486.21 630.428C486.416 630.073 486.518 629.756 486.518 629.476C486.518 629.196 486.411 629.028 486.196 628.972C486.094 628.953 486 628.944 485.916 628.944C485.832 628.944 485.758 628.958 485.692 628.986ZM497.308 620.516C496.533 620.516 495.857 620.927 495.278 621.748C495.175 621.748 495.063 621.711 494.942 621.636C494.821 621.552 494.751 621.449 494.732 621.328C495.497 619.993 496.552 619.326 497.896 619.326C498.764 619.326 499.487 619.55 500.066 619.998C500.645 620.437 500.934 621.048 500.934 621.832C500.934 622.373 500.794 622.887 500.514 623.372C500.262 623.811 500.024 624.165 499.8 624.436C499.585 624.707 499.375 624.963 499.17 625.206C498.965 625.439 498.792 625.64 498.652 625.808C498.512 625.976 498.33 626.177 498.106 626.41C497.891 626.634 497.639 626.886 497.35 627.166C497.07 627.437 496.916 627.586 496.888 627.614H499.17C499.553 627.614 499.823 627.525 499.982 627.348C500.141 627.161 500.304 626.783 500.472 626.214L501.158 626.55C501.158 626.895 501.116 627.329 501.032 627.852C501.023 627.917 500.892 628.375 500.64 629.224C500.22 629.075 499.45 629 498.33 629H497.308C496.179 629 495.255 629.028 494.536 629.084C494.443 628.851 494.396 628.669 494.396 628.538L495.054 628.02C495.81 627.404 496.515 626.695 497.168 625.892C498.325 624.464 498.904 623.195 498.904 622.084C498.904 621.599 498.755 621.216 498.456 620.936C498.157 620.656 497.775 620.516 497.308 620.516ZM506.113 629.168C504.937 629.168 503.99 628.734 503.271 627.866C502.562 626.998 502.207 625.85 502.207 624.422C502.207 622.985 502.562 621.776 503.271 620.796C503.981 619.807 504.919 619.312 506.085 619.312C507.261 619.312 508.213 619.765 508.941 620.67C509.669 621.566 510.033 622.728 510.033 624.156C510.033 625.584 509.674 626.779 508.955 627.74C508.246 628.692 507.299 629.168 506.113 629.168ZM506.379 628.216C506.967 628.216 507.415 627.861 507.723 627.152C508.041 626.443 508.199 625.589 508.199 624.59C508.199 623.479 508.045 622.504 507.737 621.664C507.569 621.216 507.331 620.861 507.023 620.6C506.715 620.339 506.351 620.208 505.931 620.208C505.371 620.208 504.914 620.577 504.559 621.314C504.214 622.051 504.041 622.873 504.041 623.778C504.041 624.935 504.191 625.929 504.489 626.76C504.657 627.208 504.9 627.563 505.217 627.824C505.544 628.085 505.931 628.216 506.379 628.216ZM513.441 620.516C512.666 620.516 511.989 620.927 511.411 621.748C511.308 621.748 511.196 621.711 511.075 621.636C510.953 621.552 510.883 621.449 510.865 621.328C511.63 619.993 512.685 619.326 514.029 619.326C514.897 619.326 515.62 619.55 516.199 619.998C516.777 620.437 517.067 621.048 517.067 621.832C517.067 622.373 516.927 622.887 516.647 623.372C516.395 623.811 516.157 624.165 515.933 624.436C515.718 624.707 515.508 624.963 515.303 625.206C515.097 625.439 514.925 625.64 514.785 625.808C514.645 625.976 514.463 626.177 514.239 626.41C514.024 626.634 513.772 626.886 513.483 627.166C513.203 627.437 513.049 627.586 513.021 627.614H515.303C515.685 627.614 515.956 627.525 516.115 627.348C516.273 627.161 516.437 626.783 516.605 626.214L517.291 626.55C517.291 626.895 517.249 627.329 517.165 627.852C517.155 627.917 517.025 628.375 516.773 629.224C516.353 629.075 515.583 629 514.463 629H513.441C512.311 629 511.387 629.028 510.669 629.084C510.575 628.851 510.529 628.669 510.529 628.538L511.187 628.02C511.943 627.404 512.647 626.695 513.301 625.892C514.458 624.464 515.037 623.195 515.037 622.084C515.037 621.599 514.887 621.216 514.589 620.936C514.29 620.656 513.907 620.516 513.441 620.516ZM522.344 625.808H518.634C518.457 625.808 518.312 625.771 518.2 625.696C518.098 625.621 518.046 625.551 518.046 625.486C518.046 625.411 518.074 625.337 518.13 625.262L523.212 619.48C523.296 619.387 523.385 619.335 523.478 619.326C523.581 619.317 523.674 619.312 523.758 619.312H524.024C524.183 619.536 524.258 619.727 524.248 619.886C524.118 620.101 524.052 620.469 524.052 620.992V624.632H524.388C524.976 624.632 525.406 624.548 525.676 624.38C525.826 624.548 525.9 624.702 525.9 624.842C525.9 625.206 525.76 625.598 525.48 626.018C525.06 625.887 524.584 625.817 524.052 625.808V629.168C523.315 629.149 522.746 629.042 522.344 628.846V625.808ZM522.4 624.632V621.748L520.006 624.632H522.4Z" fill="url(#paint2_linear_1_5)"/>
</g>
<defs>
<filter id="filter0_b_1_5" x="246" y="146" width="408" height="358" filterUnits="userSpaceOnUse" color-interpolation-filters="sRGB">
<feFlood flood-opacity="0" result="BackgroundImageFix"/>
<feGaussianBlur in="BackgroundImageFix" stdDeviation="2"/>
<feComposite in2="SourceAlpha" operator="in" result="effect1_backgroundBlur_1_5"/>
<feBlend mode="normal" in="SourceGraphic" in2="effect1_backgroundBlur_1_5" result="shape"/>
</filter>
<radialGradient id="paint0_radial_1_5" cx="0" cy="0" r="1" gradientUnits="userSpaceOnUse" gradientTransform="translate(267.167 217.407) rotate(32.8451) scale(690.51 907.639)">
<stop stop-color="#530303"/>
<stop offset="0.49" stop-color="#2F1444"/>
<stop offset="1" stop-color="#2D2D2D"/>
</radialGradient>
<linearGradient id="paint1_linear_1_5" x1="20" y1="25" x2="198" y2="25" gradientUnits="userSpaceOnUse">
<stop stop-color="white"/>
<stop offset="1" stop-color="#FF4949"/>
</linearGradient>
<linearGradient id="paint2_linear_1_5" x1="373" y1="625" x2="527" y2="625" gradientUnits="userSpaceOnUse">
<stop stop-color="white"/>
<stop offset="1" stop-color="#FF4949"/>
</linearGradient>
<clipPath id="clip0_1_5">
<rect width="900" height="650" rx="15" fill="white"/>
</clipPath>
<clipPath id="clip1_1_5">
<rect width="100" height="50" fill="white" transform="translate(800)"/>
</clipPath>
<clipPath id="clip2_1_5">
<rect width="400" height="50" fill="white" transform="translate(250 450)"/>
</clipPath>
<clipPath id="clip3_1_5">
<rect width="400" height="50" fill="white" transform="translate(250 450)"/>
</clipPath>
</defs>
</svg>
